<?xml version="1.0" encoding="UTF-8" standalone="no"?>
<!-- Created with Inkscape (http://www.inkscape.org/) -->

<svg
   width="445"
   height="435"
   viewBox="0 0 117.73959 115.09375"
   version="1.1"
   id="svg1"
   inkscape:version="1.3.2 (091e20e, 2023-11-25, custom)"
   sodipodi:docname="steff_logo_bird.svg"
   xmlns:inkscape="http://www.inkscape.org/namespaces/inkscape"
   xmlns:sodipodi="http://sodipodi.sourceforge.net/DTD/sodipodi-0.dtd"
   xmlns="http://www.w3.org/2000/svg"
   xmlns:svg="http://www.w3.org/2000/svg">
  <sodipodi:namedview
     id="namedview1"
     pagecolor="#ffffff"
     bordercolor="#000000"
     borderopacity="0.25"
     inkscape:showpageshadow="2"
     inkscape:pageopacity="0.0"
     inkscape:pagecheckerboard="0"
     inkscape:deskcolor="#d1d1d1"
     inkscape:document-units="cm"
     showguides="true"
     inkscape:zoom="1.5001964"
     inkscape:cx="193.64131"
     inkscape:cy="266.63176"
     inkscape:window-width="1920"
     inkscape:window-height="1051"
     inkscape:window-x="-9"
     inkscape:window-y="-9"
     inkscape:window-maximized="1"
     inkscape:current-layer="layer1" />
  <defs
     id="defs1">
    <rect
       x="1161.3887"
       y="1053.9225"
       width="60.331879"
       height="199.84935"
       id="rect4" />
    <rect
       x="614.63104"
       y="816.36572"
       width="695.70197"
       height="235.6714"
       id="rect3" />
  </defs>
  <g
     inkscape:label="Layer 1"
     inkscape:groupmode="layer"
     id="layer1">
    <ellipse
       id="path1"
       style="fill:#000000;stroke:#000000;stroke-width:0.131653"
       cx="27.268393"
       cy="24.773069"
       rx="0.033050213"
       ry="0.033073928" />
    <text
       xml:space="preserve"
       transform="matrix(0.00656897,0,0,0.00656897,7.359526,7.5967894)"
       id="text4"
       style="font-style:normal;font-variant:normal;font-weight:normal;font-stretch:normal;font-size:192px;font-family:'Microsoft Yi Baiti';-inkscape-font-specification:'Microsoft Yi Baiti';white-space:pre;shape-inside:url(#rect4);display:inline;fill:#000000" />
    <path
       style="fill:#000000;stroke-width:0.131653"
       id="path4"
       d="m 47.130923,22.583317 c -2.26276,-0.681248 -4.57785,0.169503 -6.7342,0.842134 -2.06696,0.781622 -4.21875,1.733383 -5.70324,3.454717 -1.1935,1.383913 -2.0546,3.251021 -2.64989,4.947898 -0.36165,1.030909 -0.59313,2.103038 -0.8897,3.154552 -1.21829,5.240918 -1.24022,10.638116 -1.6991,15.971211 -0.40485,4.705113 -0.41988,4.305596 -1.11987,8.945644 -1.29448,6.995485 -3.56488,13.840142 -7.2246,19.969597 -0.71978,1.205545 -1.544,2.345471 -2.31599,3.518213 -0.96206,1.103791 -1.87094,2.256348 -2.88616,3.311394 -3.19843,3.323933 -7.2010305,6.354083 -11.5154805,8.070683 -0.69064,0.27481 -1.41741,0.44807 -2.12612,0.6721 0,0 1.47684,1.00347 1.47684,1.00347 v 0 c 0.69841,-0.2399 1.41511,-0.43198 2.09524,-0.71974 4.3072705,-1.82231 8.2069305,-4.85344 11.4259305,-8.207116 1.01955,-1.062211 1.94134,-2.214248 2.91201,-3.32137 0.77313,-1.177446 1.59796,-2.322457 2.31936,-3.532333 3.66685,-6.14978 5.95913,-13.003934 7.234,-20.02711 0.717,-4.778866 0.69114,-4.116141 1.12007,-8.958913 0.46999,-5.306315 0.57568,-10.674283 1.78726,-15.88654 0.30094,-1.040496 0.5364,-2.102237 0.9028,-3.121498 0.61423,-1.708665 1.4516,-3.466606 2.66632,-4.846885 1.49,-1.693084 3.61059,-2.629995 5.67259,-3.385438 2.17441,-0.637767 4.55579,-1.446907 6.79659,-0.633033 z" />
    <path
       style="fill:#000000;stroke-width:0.131653"
       id="path5"
       d="m 50.050863,22.812803 c 0.72304,-1.360496 2.15358,-1.988057 3.50332,-2.553902 2.52072,-0.814733 5.17789,-1.176793 7.82176,-1.247694 0.85867,-0.02302 1.71988,-0.03743 2.57684,0.02142 0.92624,0.06355 1.84255,0.230115 2.76381,0.345177 2.36274,0.551596 3.12869,0.627941 5.36398,1.548892 0.80095,0.329986 1.60326,0.674842 2.3401,1.13048 0.28346,0.175275 0.44266,0.498978 0.67754,0.735487 2.75699,2.77619 1.09746,0.834668 3.46772,3.871826 2.36517,3.471609 3.56362,7.500488 4.21329,11.614838 0.13002,0.823479 0.21471,1.653505 0.32206,2.480268 0.54389,5.589678 0.78741,11.204112 1.07128,16.811754 0.26892,4.550351 0.58853,9.162429 1.98092,13.535213 0.28945,0.909013 0.66424,1.788573 0.99636,2.682875 1.18623,2.24678 1.44992,3.066538 3.153767,4.997203 0.66901,0.758073 1.36191,1.517808 2.18809,2.100315 2.44033,1.720533 4.99742,3.019965 7.85903,3.820889 1.16582,0.326294 2.37527,0.469308 3.56289,0.703976 4.48138,0.254652 2.31518,0.236119 6.49814,0.09657 0,0 -1.38958,-1.002758 -1.38958,-1.002758 v 0 c -4.1306,0.156932 -1.98752,0.172863 -6.42875,-0.09417 -3.61824,-0.738011 -3.54776,-0.529981 -6.96648,-2.007721 -0.54384,-0.235069 -1.08626,-0.499808 -1.55263,-0.86535 -2.37555,-1.861914 -4.09448,-4.304457 -5.358557,-7.019673 -0.33228,-0.888237 -0.70695,-1.761753 -0.99685,-2.66473 -1.39976,-4.360046 -1.72213,-8.961465 -1.99476,-13.501411 -0.29105,-5.607651 -0.55552,-11.219353 -1.04529,-16.813864 -0.10616,-0.829735 -0.18978,-1.662693 -0.3185,-2.489245 -0.6441,-4.135996 -1.82287,-8.192554 -4.18366,-11.693364 -1.12088,-1.455793 -1.9896,-2.769776 -3.45994,-3.920732 -3.62938,-2.840997 -6.91841,-4.239038 -11.38882,-5.093441 -0.93045,-0.113541 -1.85611,-0.278009 -2.79136,-0.340635 -0.86358,-0.05784 -1.73126,-0.04282 -2.59649,-0.02011 -2.68411,0.07015 -5.38224,0.422171 -7.94636,1.234854 -1.45692,0.603913 -2.83404,1.208848 -3.65948,2.632087 z" />
    <path
       style="fill:#000000;stroke-width:0.131653"
       id="path6"
       d="m 1.9793825,93.56032 c 0.46208,0.25305 0.90295,0.54953 1.38625,0.75917 0.13622,0.059 -0.22414,-0.19528 -0.32895,-0.30054 -0.53019,-0.53247 -0.82673,-1.12512 -1.0787,-1.82435 -0.21535,-0.75206 -0.34092,-1.58128 -0.0891,-2.34487 0.16987,-0.515152 0.47715,-0.979677 0.74738,-1.442308 0.96368,-1.515227 2.21978,-2.811056 3.39038,-4.163705 0,0 -1.62447,-0.979113 -1.62447,-0.979113 v 0 c -1.16465,1.373505 -2.42987,2.673517 -3.41833,4.185872 -0.2714,0.454886 -0.61789,0.979502 -0.79617,1.487426 -0.27532,0.784348 -0.17462,1.652118 0.0369,2.434308 0.63621,1.96213 1.41428,2.35381 3.30457,3.42657 z" />
    <path
       style="fill:#000000;stroke-width:0.131653"
       id="path7"
       d="m 7.1831325,82.338331 c -0.62746,-0.771834 -0.19878,-1.679045 0.19247,-2.466408 0.42055,-0.846327 1.17868,-2.066562 1.65144,-2.853046 1.1663605,-1.946365 2.4864905,-3.792059 3.7935905,-5.644347 0,0 -1.60508,-0.945038 -1.60508,-0.945038 v 0 c -1.2746605,1.877997 -2.5750605,3.739641 -3.7677805,5.671807 -0.44657,0.722108 -1.29497,2.064609 -1.71226,2.844879 -0.36912,0.690196 -0.80864,1.492061 -0.55904,2.309657 0.0358,0.117404 0.13006,0.208168 0.19509,0.312263 z" />
    <path
       style="fill:#000000;stroke-width:0.131653"
       id="path8"
       d="m 12.616573,67.646847 c -1.40503,0.08765 -2.39085,-0.281802 -3.6218105,-0.921951 0.31959,0.169702 0.59963,0.465284 0.95876,0.509105 0.2420205,0.02952 -0.38933,-0.295181 -0.56779,-0.461411 -0.15959,-0.148666 -0.31007,-0.308531 -0.44377,-0.480884 -0.40004,-0.51573 -0.56639,-1.077573 -0.72856,-1.696787 -0.23091,-1.154158 -0.25987,-2.306314 0.17814,-3.416589 0.10576,-0.268103 0.24486,-0.521815 0.3673,-0.782732 1.5020305,-2.724573 3.0923605,-5.396879 4.5908505,-8.123625 1.99993,-3.797202 3.92893,-7.631731 5.87305,-11.457844 2.19731,-4.403707 4.30095,-8.852587 6.40161,-13.302948 1.34702,-2.711024 2.67239,-5.525221 4.83308,-7.702622 0.33731,-0.339917 0.71707,-0.634825 1.07559,-0.952224 1.97126,-1.389815 4.11287,-1.962907 6.48366,-2.134099 1.2335,0.02432 0.61517,-0.01051 1.85492,0.105976 0,0 -1.5296,-1.132712 -1.5296,-1.132712 v 0 c -1.25221,-0.102131 -0.62838,-0.07655 -1.87146,-0.07846 -2.39057,0.213291 -4.54685,0.8253 -6.51535,2.25999 -0.35802,0.326393 -0.73687,0.631282 -1.07404,0.979201 -2.14702,2.215449 -3.48693,5.029396 -4.80321,7.778838 -2.08158,4.457506 -4.17536,8.909258 -6.39202,13.301656 -1.95693,3.816727 -3.91058,7.635635 -5.90665,11.431947 -0.56595,1.021852 -1.26793,2.305424 -1.8620305,3.315617 -0.93611,1.591731 -1.93995,3.144124 -2.81922,4.7694 -0.31126,0.647764 -0.46801,0.888887 -0.6454,1.578672 -0.23154,0.900415 -0.12057,1.823087 0.0199,2.727465 0.11717,0.503391 0.14844,0.761346 0.37085,1.230773 0.70011,1.477719 2.31895,2.166403 3.6446405,2.930551 1.2725,0.624147 2.29536,0.946067 3.72275,0.884763 z" />
    <path
       style="fill:#000000;stroke-width:0.131653"
       id="path9"
       d="m 45.762013,13.808737 c 0.28053,-1.607083 0.88489,-3.19437 1.72965,-4.592064 0.23444,-0.387877 0.50564,-0.752278 0.75847,-1.128418 1.77352,-2.338056 4.20599,-3.984407 6.94275,-5.004698 0.78121,-0.291229 1.58904,-0.505222 2.38355,-0.757833 4.50625,-1.206225 9.19843,-1.678654 13.83546,-1.001118 1.10869,0.162008 2.19905,0.431399 3.29859,0.647094 3.45527,0.857665 6.6399,1.963828 9.72118,3.773385 0.4623,0.271495 0.88327,0.611689 1.28866,0.96266 2.78671,2.412619 2.34721,2.125194 4.660977,4.973245 3.1391,4.569928 4.99109,9.836573 6.07607,15.244872 0.21673,1.080354 0.3693,2.172617 0.55394,3.258916 0.8706,6.197193 0.96874,12.462706 0.91938,18.709203 -0.0577,3.753762 -0.25254,7.563634 0.57955,11.257752 0.14837,0.658692 0.36326,1.300573 0.5449,1.950849 0.55029,1.343723 0.87787,2.389904 1.76406,3.567538 1.75815,2.336335 4.42979,3.818508 6.97893,5.099315 0.69038,0.34688 1.43471,0.573703 2.15209,0.860557 0,0 -1.39633,-1.099617 -1.39633,-1.099617 v 0 c -0.71165,-0.291199 -1.42563,-0.576824 -2.13497,-0.873608 -0.1902,-0.07956 -0.39292,-0.139258 -0.56334,-0.255344 -1.31119,-0.893058 -2.4101,-1.731509 -3.38505,-2.997847 -0.8957,-1.163424 -1.22605,-2.192422 -1.78609,-3.526058 -0.1843,-0.644763 -0.40159,-1.280999 -0.5529,-1.934317 -0.85477,-3.690767 -0.69331,-7.506493 -0.66051,-11.262745 0.0196,-6.26231 -0.0845,-12.541263 -0.94555,-18.755297 -0.18272,-1.0891 -0.3331,-2.184125 -0.54816,-3.267303 -1.07815,-5.430023 -2.92486,-10.719285 -6.05496,-15.318903 -1.54594,-1.926121 -2.621447,-3.516281 -4.628527,-5.016308 -1.62682,-1.21582 -5.16912,-3.29331 -7.23864,-4.198959 -2.35565,-1.030829 -4.21301,-1.464731 -6.68318,-2.165323 -1.11306,-0.218396 -2.21662,-0.492513 -3.33916,-0.65516 -4.66296,-0.675664 -9.38016,-0.174635 -13.9096,1.032421 -1.88827,0.592304 -2.74059,0.771653 -4.48055,1.639505 -1.96315,0.979172 -3.65645,2.447465 -4.99983,4.169078 -0.25881,0.379934 -0.53638,0.747738 -0.77644,1.139809 -0.86997,1.420919 -1.4622,3.018263 -1.85772,4.630729 z" />
    <path
       style="fill:#000000;stroke-width:0.131653"
       id="path10"
       d="m 109.90688,71.537256 c 0.62543,0.137339 1.24084,0.318759 1.82792,0.577915 0.26084,0.115122 0.99653,0.549464 0.76419,0.384196 -0.29101,-0.207 -0.58892,-0.456218 -0.9418,-0.510538 -0.24227,-0.03733 0.38554,0.303058 0.57831,0.454576 0.23775,0.265602 0.57633,0.532984 0.60142,0.93416 0.0527,0.841935 -1.4446,1.244954 -2.00538,1.437382 -0.25958,0.07876 -0.51916,0.157672 -0.77874,0.236529 0,0 1.58192,1.079253 1.58192,1.079253 v 0 c 0.25978,-0.08155 0.51955,-0.163226 0.77931,-0.244825 0.8527,-0.305109 2.73219,-0.932428 2.02023,-2.219372 -0.10573,-0.191116 -0.27737,-0.337411 -0.41606,-0.506101 -1.54714,-1.288015 -3.58306,-2.418815 -5.60549,-2.782245 z" />
    <path
       style="fill:#000000;stroke-width:0.131653"
       id="path11"
       d="m 111.04226,77.492547 c 1.20472,0.01401 2.43305,0.281151 3.4661,0.930827 0.19982,0.12568 -0.73315,-0.493063 -0.65435,-0.270444 0.12418,0.350912 0.54992,0.501489 0.82487,0.75225 0.43006,0.493473 1.66153,1.863756 0.95676,2.610962 -0.345,0.365771 -0.8896,0.325423 -1.3262,0.373878 -1.33175,-0.107667 -0.66031,-0.02992 -2.0139,-0.236921 0,0 1.51544,1.136054 1.51544,1.136054 v 0 c 1.3771,0.19526 0.68984,0.127832 2.06157,0.204428 0.56515,-0.09467 1.0447,-0.05894 1.45512,-0.531912 0.76837,-0.885454 -0.3824,-2.211326 -0.90354,-2.840316 -0.27275,-0.259766 -0.50973,-0.563365 -0.81828,-0.779329 -2.00853,-1.405798 -3.70164,-2.451878 -6.1467,-2.500504 z" />
    <path
       style="fill:#000000;stroke-width:0.131653"
       id="path12"
       d="m 112.16127,83.742877 c 0.13162,0.05754 0.51636,0.249559 0.39487,0.172805 -0.34234,-0.216225 -0.65574,-0.61216 -1.06012,-0.593006 -0.32445,0.01542 0.52669,0.383646 0.76255,0.607115 1.00298,0.950312 1.68941,2.085386 2.37494,3.269024 0.55076,1.151867 1.0716,2.351726 1.31025,3.615285 0.0837,0.44313 0.16941,1.13948 -0.0428,1.58968 -0.0822,0.17447 -0.2617,0.28334 -0.39254,0.425 -0.2154,0.0423 -0.42667,0.12857 -0.64617,0.12692 -1.01548,-0.008 -2.44127,-0.63293 -3.25469,-1.17898 -0.0944,-0.0634 0.41012,0.12305 0.33936,0.034 -0.33676,-0.42397 -0.79346,-0.73676 -1.1902,-1.10513 -1.34739,-1.525821 -0.71512,-0.76499 -1.90416,-2.27633 0,0 -1.70985,-0.732705 -1.70985,-0.732705 v 0 c 1.20135,1.529726 0.5661,0.758272 1.9119,2.309295 1.78821,1.71634 1.1146,1.21648 4.00504,2.93419 0.89658,0.53283 2.29848,1.19369 3.38773,1.10868 0.24858,-0.0194 0.47653,-0.14702 0.71478,-0.22054 0.14495,-0.17292 0.34122,-0.31342 0.43488,-0.51873 0.22254,-0.48793 0.14061,-1.19625 0.0477,-1.6828 -0.24414,-1.27917 -0.77194,-2.497759 -1.31504,-3.67109 -0.23589,-0.41957 -0.45097,-0.851591 -0.70767,-1.258743 -1.19763,-1.899591 -2.83042,-3.448802 -5.03812,-4.130982 z" />
    <path
       style="fill:#000000;stroke-width:0.131653"
       id="path13"
       d="m 83.483133,76.193265 c 0.479,2.361452 0.57348,4.778936 0.63321,7.180778 0.0483,4.217554 -1.55843,8.139077 -3.0366,12.009687 -1.04302,2.68705 -2.18865,5.34101 -2.9262,8.13503 -0.43664,1.65411 -0.56422,2.52665 -0.8701,4.19576 -0.31456,1.76878 -0.33522,3.51243 0.21736,5.23565 0.15112,0.47127 0.38223,0.91299 0.57336,1.36947 0,0 1.68444,0.77411 1.68444,0.77411 v 0 c -0.19932,-0.44907 -0.43824,-0.88255 -0.59793,-1.3472 -0.58439,-1.70044 -0.58772,-3.42709 -0.2909,-5.18705 0.31001,-1.74083 0.40108,-2.45463 0.85702,-4.18011 0.73699,-2.78912 1.86992,-5.44495 2.91164,-8.12767 1.48834,-3.88434 3.11627,-7.816068 3.11392,-12.047631 -0.0369,-2.386241 -0.12248,-4.780127 -0.50114,-7.140681 z" />
    <path
       style="fill:#000000;stroke-width:0.131653"
       id="path14"
       d="m 77.830893,112.02593 c 0.61878,1.57529 2.12411,2.34156 3.67277,2.89049 0.19257,0.0681 0.40376,-0.0627 0.60565,-0.094 0.72545,-0.57147 1.15215,-1.37939 1.61834,-2.1543 0,0 -1.65007,-0.95712 -1.65007,-0.95712 v 0 c -0.4358,0.72841 -0.82444,1.49795 -1.54642,1.99014 -1.05107,0.0641 -0.64683,-0.079 0.55731,0.83066 0.16607,0.12548 -0.35959,-0.21254 -0.52172,-0.34309 -0.43759,-0.35237 -0.77341,-0.79672 -0.95841,-1.32744 z" />
    <path
       style="fill:#000000;stroke-width:0.131653"
       id="path15"
       d="m 87.425613,112.86227 c 0.29681,-0.0104 0.60249,0.0414 0.89046,-0.0315 2.112737,-0.53412 3.798967,-2.39061 5.256107,-3.89485 0,0 -1.56996,-0.95869 -1.56996,-0.95869 v 0 c -1.42169,1.48725 -3.096937,3.34207 -5.228557,3.73102 -0.29586,0.0539 -0.60086,-0.0265 -0.9013,-0.0398 z" />
    <path
       style="fill:#000000;stroke-width:0.131653"
       id="path16"
       d="m 97.83441,107.53902 c 1.56741,-0.25915 3.20966,-0.44591 4.6425,-1.18602 0.35343,-0.18256 0.67303,-0.42434 1.00956,-0.63649 0.87057,-0.65785 1.46999,-1.5013 1.9732,-2.45366 0.23209,-0.43926 0.3396,-0.90426 0.77383,-1.19969 0.13104,-0.0893 0.30263,-0.0942 0.45394,-0.14119 0.52296,-0.0223 1.21122,0.61898 1.70093,0.20775 0.34932,-0.29335 0.44708,-0.80703 0.58111,-1.20099 0.39126,-1.8872 0.36384,-3.91154 -0.31137,-5.73813 -0.13899,-0.376 -0.33611,-0.72785 -0.50417,-1.09176 -1.2463,-2.17252 -3.1241,-3.87508 -4.77979,-5.726482 -1.06155,-1.252028 -2.0905,-2.549629 -2.82183,-4.026117 0,0 -1.7624,-0.798894 -1.7624,-0.798894 v 0 c 0.74262,1.50611 1.79754,2.822984 2.87274,4.104023 1.25971,1.420159 0.63381,0.732416 1.90669,2.09767 1.04301,1.1187 2.12572,2.22064 2.87347,3.57073 0.17236,0.35486 0.37426,0.69679 0.51707,1.06454 0.69133,1.78025 0.74022,3.7689 0.3277,5.6146 -0.0987,0.27766 -0.21115,0.81515 -0.51076,1.02073 -0.4198,0.28805 -1.21387,-0.3887 -1.70218,-0.18164 -0.16516,0.0755 -0.35341,0.1131 -0.49549,0.22618 -0.43986,0.35001 -0.51745,0.76431 -0.76683,1.24977 -0.47813,0.93077 -1.0591,1.74687 -1.90699,2.38253 -0.33016,0.20338 -0.64373,0.43665 -0.99049,0.61018 -1.43695,0.71909 -3.0939,0.90657 -4.66798,1.07811 z" />
    <path
       style="fill:#000000;stroke-width:0.131653"
       id="path19"
       d="m 26.070883,75.750056 c -0.32668,1.782039 -0.48709,3.610549 -0.39606,5.422399 0.0258,0.514308 0.0861,1.026295 0.12921,1.539454 0.21726,1.803412 0.62804,3.601081 1.55293,5.183406 0.54406,0.930807 0.87968,1.256831 1.58879,2.111535 1.3529,1.58329 2.94293,2.95546 4.25379,4.57644 0.77332,0.95625 0.92979,1.29501 1.55238,2.33025 0.83188,1.4392 1.15527,3.05859 1.57189,4.64372 0.27544,1.0479 0.34197,1.19607 0.67987,2.2175 0.41441,1.07223 0.92535,2.09897 1.65113,2.99692 0.49482,0.61217 0.94592,1.0068 1.51068,1.54263 0,0 1.75271,0.71956 1.75271,0.71956 v 0 c -0.555,-0.51152 -1.04326,-0.93063 -1.53285,-1.5129 -0.73712,-0.87664 -1.2562,-1.88449 -1.67597,-2.94481 -0.31918,-0.94428 -0.43523,-1.23606 -0.6921,-2.20553 -0.42387,-1.59992 -0.72631,-3.24328 -1.56136,-4.70093 -0.60421,-1.01941 -0.79957,-1.42758 -1.55211,-2.36807 -1.30036,-1.62515 -2.89404,-2.99048 -4.24777,-4.56772 -0.68205,-0.81399 -1.04768,-1.181998 -1.58702,-2.067061 -0.94909,-1.557477 -1.38867,-3.334321 -1.61119,-5.129419 -0.0443,-0.508754 -0.10834,-1.016169 -0.13302,-1.526263 -0.086,-1.778416 0.0898,-3.58185 0.46673,-5.319565 z" />
    <path
       style="fill:#000000;stroke-width:0.131653"
       id="path20"
       d="m 42.720633,110.67098 c -0.22875,0.95399 -0.29301,1.28828 -1.25179,1.64769 -1.95728,0.31789 -3.95687,0.33426 -5.93127,0.19987 -1.0535,-0.15886 -2.0445,-0.70542 -3.13333,-0.54511 -0.39982,0.0589 -0.52267,0.15038 -0.86998,0.32077 -0.92306,0.67488 -1.99679,0.77455 -3.10354,0.83977 -0.83617,0.0407 -1.63633,-0.11689 -2.42141,-0.38481 0,0 1.53511,1.19005 1.53511,1.19005 v 0 c 0.79916,0.23605 1.6108,0.368 2.44898,0.31565 1.12849,-0.0787 2.22087,-0.21017 3.16805,-0.88338 0.33132,-0.14799 0.4351,-0.22333 0.81319,-0.26405 1.06825,-0.11507 2.04518,0.43384 3.09086,0.5365 2.00388,0.11172 4.04008,0.10444 6.02151,-0.2414 0.14802,-0.0639 0.30453,-0.11144 0.44407,-0.19244 0.58606,-0.34029 0.76456,-0.98255 0.91904,-1.5957 z" />
    <path
       style="fill:#000000;stroke-width:0.131653"
       id="path21"
       d="m 23.750863,111.44755 c -0.13913,-0.0743 -0.55382,-0.30192 -0.41743,-0.22271 2.20521,1.28053 1.24462,0.74594 0.75487,0.35619 -0.4475,-0.35611 -0.80415,-0.77314 -1.16096,-1.216 -0.80639,-1.24972 -0.98533,-2.77968 -1.14305,-4.22845 -0.19878,-0.89172 0.1219,-2.04263 -0.29564,-2.87962 -0.0609,-0.1221 -0.15979,-0.22115 -0.23969,-0.33174 -0.89684,-0.61975 -0.81543,-0.58471 -2.44666,-1.34519 -0.12005,-0.0559 -0.75735,-0.12222 -0.88911,-0.13802 0,0 1.56152,1.16758 1.56152,1.16758 v 0 c 0.14314,0.0213 0.28742,0.0363 0.4294,0.0643 0.14641,0.0289 0.54941,0.20224 0.43487,0.1065 -0.58068,-0.48541 -1.9441,-1.13229 -0.88851,-0.61801 0.0901,0.0899 0.20037,0.16329 0.27026,0.26966 0.46492,0.70769 0.16386,2.04329 0.3429,2.85036 0.15773,1.46957 0.3333,3.01918 1.08252,4.31937 1.15377,1.50225 2.33448,2.22445 4.14296,3.06559 z" />
    <path
       style="fill:#000000;stroke-width:0.131653"
       id="path22"
       d="m 16.076443,101.33854 c -1.1857,-0.21664 -2.39305,-0.38596 -3.52439,-0.82343 -0.32698,-0.12646 -0.63892,-0.28881 -0.95838,-0.43322 -0.31614,-0.16827 -0.65542,-0.29883 -0.94844,-0.50483 -0.23009,-0.16175 0.74486,0.65193 0.75782,0.37083 0.015,-0.32676 -0.5084,-0.41233 -0.74553,-0.63749 -0.6906805,-0.6558 -1.0675105,-1.27132 -1.4867005,-2.11172 -0.40703,-1.01911 -0.52473,-2.10772 -0.62116,-3.19038 0,0 -1.71806,-0.85717 -1.71806,-0.85717 v 0 c 0.0951,1.10193 0.21758,2.20909 0.59743,3.25642 0.31366,0.66564 0.38553,0.91173 0.84644,1.50292 1.22763,1.57468 3.0623305,2.45348 4.8016105,3.34715 0.32545,0.14021 0.64412,0.29732 0.97631,0.42063 1.15819,0.42996 2.3859,0.59113 3.58567,0.85601 z" />
    <path
       style="fill:#000000;stroke-width:0.131653"
       id="path29"
       d="m 55.488463,39.62988 c -1.35269,-0.863279 -2.74126,-1.722795 -4.27495,-2.222534 -1.11244,-0.267992 -2.26696,-0.275508 -3.4051,-0.293 -0.91718,-0.008 -1.83815,0.02892 -2.74819,-0.113591 -0.23912,-0.03743 -0.88692,-0.185613 -1.13222,-0.240303 -0.7231,-0.178117 -1.44695,-0.374588 -2.10655,-0.728612 -0.17015,-0.09136 -0.67218,-0.380133 -0.50035,-0.292009 0.38571,0.197802 0.76163,0.414197 1.14245,0.621295 -0.84606,-0.591164 -1.59794,-1.304236 -2.45857,-1.874804 -0.65896,-0.373808 -1.31791,-0.747606 -1.97686,-1.121414 0,0 1.52827,1.225488 1.52827,1.225488 v 0 c -0.45751,-0.270844 -0.91502,-0.541688 -1.37253,-0.812532 0.88852,0.541838 1.63928,1.268289 2.47936,1.878487 1.66246,1.000087 2.92042,1.914633 4.8082,2.277423 1.28744,0.271434 2.58053,0.36349 3.89712,0.319549 1.13221,0.02682 2.28452,0.03552 3.38148,0.35021 0.46075,0.164139 0.90151,0.348671 1.33988,0.566857 0.15021,0.07475 0.58952,0.32001 0.44692,0.231585 -2.38607,-1.47992 -1.31763,-0.775885 -0.8793,-0.482795 z" />
    <path
       style="fill:#000000;stroke-width:0.131653"
       id="path30"
       d="m 37.114593,34.077369 c 0.2811,1.214671 0.80554,2.353647 1.28137,3.5004 0.38074,0.822409 0.48715,1.724046 0.72039,2.589556 0.17277,0.661735 0.59439,1.123586 1.18661,1.454473 2.28582,1.277105 1.52247,1.010745 3.03202,1.420339 1.30317,0.326183 2.63326,0.536233 3.97173,0.642499 0.99398,0.05254 1.98987,0.04483 2.98487,0.04273 1.06907,0.007 2.14472,-0.150699 3.16772,-0.45942 0.72296,-0.350201 1.18424,-0.994473 1.60444,-1.652956 0.20252,-0.243513 0.35166,-0.512756 0.46774,-0.805466 0,0 -1.72109,-0.959279 -1.72109,-0.959279 v 0 c -0.10648,0.283114 -0.25383,0.538017 -0.44264,0.775816 -0.38996,0.624439 -0.81519,1.23959 -1.51371,1.543758 -1.01625,0.29315 -2.07719,0.429718 -3.13519,0.414457 -0.99211,0.002 -1.98549,0.009 -2.97603,-0.05635 -1.32446,-0.111829 -2.64279,-0.311373 -3.92788,-0.657632 -1.24384,-0.381052 -0.76298,-0.309561 0.29158,0.453305 0.15788,0.114203 -0.34331,-0.186313 -0.50223,-0.299054 -0.36954,-0.262159 -0.6023,-0.581846 -0.7225,-1.01769 -0.25868,-0.869242 -0.3416,-1.788592 -0.73075,-2.619597 -0.46958,-1.131521 -1.00931,-2.250003 -1.27127,-3.453326 z" />
    <path
       style="fill:#000000;stroke-width:0.131653"
       id="path31"
       d="m 63.576543,38.930639 c 1.31405,-0.253742 2.65324,-0.322392 3.98731,-0.380413 1.53603,-0.03172 3.06842,-0.161107 4.58764,-0.387838 1.25338,-0.191688 2.44453,-0.605424 3.64147,-1.003621 0.74026,-0.271514 1.4846,-0.533141 2.2156,-0.828773 0,0 -1.61436,-1.081195 -1.61436,-1.081195 v 0 c -0.72452,0.295101 -1.46063,0.561332 -2.19651,0.826592 -1.18794,0.394783 -2.3782,0.782621 -3.61953,0.977871 -1.51515,0.220038 -3.04136,0.346509 -4.57262,0.374679 -1.35265,0.06314 -2.70808,0.142381 -4.04313,0.382254 z" />
    <path
       style="fill:#000000;stroke-width:0.131653"
       id="path32"
       d="m 75.672963,36.939361 c -0.61367,1.074009 -1.43818,2.007659 -2.1819,2.992215 -0.41288,0.544731 -0.69804,1.17312 -1.13375,1.700338 -0.76413,0.546593 -1.80157,0.54204 -2.70466,0.618855 -1.0221,0.07405 -2.04715,0.07996 -3.07137,0.08216 -0.70596,-0.01321 -1.40371,-0.02413 -2.10332,0.07245 -0.73209,0.07806 -1.47402,0.178237 -2.21023,0.115823 -0.62916,-0.230415 -1.91952,-0.694859 0.9659,0.601951 0.0885,0.03973 -0.13265,-0.143253 -0.18415,-0.225512 -0.13527,-0.216054 -0.17093,-0.385996 -0.24632,-0.627029 -0.20272,-0.645904 0.0212,-1.273144 0.13864,-1.91041 0.0719,-0.464373 0.0395,-0.233768 0.0974,-0.691755 0,0 -1.73393,-0.910814 -1.73393,-0.910814 v 0 c -0.0529,0.451544 -0.0228,0.224331 -0.0909,0.681578 -0.12243,0.661464 -0.36582,1.316974 -0.17913,1.991428 0.0648,0.246548 0.10635,0.451305 0.21554,0.68347 0.44209,0.939824 1.61794,1.37915 2.596,1.568455 0.74595,0.01932 1.49193,-0.05754 2.23213,-0.144334 0.6911,-0.08306 1.38407,-0.05763 2.07922,-0.05974 1.02306,-0.005 2.04671,-0.02292 3.06694,-0.105724 0.94989,-0.08896 2.05289,-0.08876 2.82,-0.729214 0.43025,-0.535013 0.70626,-1.169749 1.11251,-1.722555 0.74161,-1.002759 1.55624,-1.953181 2.22316,-3.008538 z" />
    <path
       style="fill:#000000;stroke-width:0.131653"
       id="path47"
       d="m 46.469323,46.162613 c -0.57761,0.280952 -1.05102,0.706877 -1.316,1.304156 -0.0571,0.128812 -0.0868,0.268151 -0.13023,0.402227 -0.055,0.439696 -0.0186,1.033412 0.40799,1.305077 1.82388,1.161542 1.24354,1.027346 2.28264,1.195436 0.6111,-0.04693 1.09276,-0.459829 1.25692,-1.053135 0.0328,-0.118285 0.0385,-0.242413 0.0578,-0.36363 0.028,-0.298825 -0.048,-0.549605 -0.16863,-0.814944 0,0 -1.78975,-0.800065 -1.78975,-0.800065 v 0 c 0.15358,0.22242 0.24399,0.427888 0.23789,0.708339 -0.0117,0.108098 -0.0105,0.218476 -0.0354,0.324312 -0.12393,0.526448 -0.57567,0.858396 -1.10807,0.817096 -0.75726,-0.240253 -0.58604,-0.210721 1.069,0.723749 0.0922,0.05204 -0.18102,-0.114192 -0.25385,-0.191127 -0.24094,-0.254483 -0.28504,-0.586171 -0.25749,-0.919569 0.0357,-0.122098 0.0568,-0.249439 0.10714,-0.366293 0.24302,-0.564815 0.71256,-0.94933 1.27125,-1.172901 z" />
    <path
       style="fill:#000000;stroke-width:0.131653"
       id="path48"
       d="m 67.710753,47.952187 c -0.48852,0.341284 -0.97383,0.887236 -1.07884,1.498144 -0.0184,0.107097 -0.004,0.217305 -0.005,0.325963 0.0295,0.09317 0.0441,0.192349 0.0884,0.279421 0.0423,0.08326 0.0895,0.173435 0.16776,0.224431 0.61078,0.398205 1.23625,0.776366 1.88312,1.112688 0.12449,0.06475 0.3922,-0.03283 0.49238,-0.09557 0.0745,-0.04673 0.13112,-0.117224 0.19667,-0.175835 0.25888,-0.41908 0.47372,-0.938193 0.25012,-1.4228 -0.0403,-0.08736 -0.10546,-0.160886 -0.15819,-0.241333 -0.88048,-0.932319 -1.99552,-1.369071 -3.20213,-1.453962 0,0 1.57344,1.164345 1.57344,1.164345 v 0 c 0.26256,0.02592 0.52548,0.05234 0.77929,0.129843 0.0899,0.02742 0.34305,0.149786 0.26418,0.09857 -0.4651,-0.301697 -0.9517,-0.568848 -1.42756,-0.853272 0.072,0.04873 0.14396,0.09737 0.21595,0.146005 0.061,0.06215 0.13281,0.115282 0.18312,0.186384 0.27236,0.384915 0.0884,0.85031 -0.13894,1.204273 -0.1324,0.09457 -0.16633,0.15328 -0.34253,0.141351 -0.0721,-0.005 -0.26952,-0.09727 -0.20914,-0.05754 0.46958,0.309101 0.96293,0.580446 1.44439,0.870665 -0.0654,-0.05373 -0.1416,-0.09647 -0.19615,-0.161166 -0.0535,-0.06345 -0.0819,-0.144705 -0.12277,-0.217056 -0.01,-0.09117 -0.0366,-0.18223 -0.0285,-0.273546 0.0494,-0.556529 0.56195,-1.092784 1.02118,-1.356964 z" />
    <path
       style="fill:#000000;stroke-width:0.131653"
       id="path49"
       d="m 55.347553,61.62364 c 0.0142,0.54631 0.007,1.092862 0.007,1.639294 0.004,0.434191 0.0917,0.836059 0.36274,1.179866 1.16687,1.105863 1.8433,1.192125 3.12226,1.218414 0.4222,-0.01892 0.8531,0.04783 1.27276,-0.02242 0.13003,-0.02172 0.31943,-0.08536 0.44755,-0.12549 0.31798,-0.07926 0.58285,-0.267872 0.83994,-0.46226 0.34456,-0.314847 0.36855,-0.789687 0.40316,-1.22564 0.0209,-0.398165 0.0122,-0.201274 0.026,-0.590693 0,0 -1.73677,-0.89217 -1.73677,-0.89217 v 0 c -0.01,0.384966 -0.003,0.190787 -0.0208,0.582518 -0.0297,0.372527 -0.0281,0.8085 -0.33613,1.070238 -0.2459,0.175895 -0.49573,0.341114 -0.79571,0.410203 -0.54651,0.154172 -1.10819,0.120206 -1.67134,0.106026 -0.29952,-0.01191 -0.60565,-0.01401 -0.90041,-0.07646 -0.0691,-0.01461 -0.2628,-0.09747 -0.20332,-0.05944 0.96887,0.619864 2.09363,1.198009 1.36878,0.823101 -0.32576,-0.268574 -0.41169,-0.637088 -0.43674,-1.047542 0,-0.544079 -0.008,-1.08832 0.007,-1.632271 z" />
    <path
       style="fill:#000000;stroke-width:0.131653"
       id="path50"
       d="m 57.403573,55.135748 c -0.67331,-0.190178 -1.29589,-0.512539 -1.94444,-0.771815 -0.40633,-0.103704 -1.29319,-0.713611 -1.68789,-0.672062 -0.0707,0.008 -0.12986,0.05824 -0.19479,0.08726 -0.0417,0.05384 -0.0969,0.09967 -0.12519,0.161646 -0.25418,0.556319 0.37765,1.525214 0.63664,1.975556 0.21109,0.344818 0.36111,0.619004 0.62075,0.929927 0.79291,0.949552 2.10308,1.614438 3.21199,2.045167 0,0 -1.51631,-1.196739 -1.51631,-1.196739 v 0 c -0.43449,-0.194139 -1.85103,-0.845586 0.82875,0.549435 0.1435,0.07475 -0.26481,-0.186624 -0.38887,-0.290489 -0.42076,-0.352262 -0.74305,-0.780279 -1.008,-1.259743 -0.19187,-0.321411 -0.82337,-1.331545 -0.69445,-1.739667 0.009,-0.02791 0.0396,-0.04303 0.0595,-0.06465 0.53663,-0.04122 1.25159,0.534362 1.77433,0.669569 0.657,0.275738 1.30009,0.586641 1.98873,0.779049 z" />
  </g>
</svg>
