<?xml version="1.0" encoding="UTF-8" standalone="no"?>
<svg
   width="442"
   height="462"
   viewBox="0 0 116.94584 122.2375"
   version="1.1"
   id="svg1"
   inkscape:version="1.3.2 (091e20e, 2023-11-25, custom)"
   sodipodi:docname="steff_logo.svg"
   xmlns:inkscape="http://www.inkscape.org/namespaces/inkscape"
   xmlns:sodipodi="http://sodipodi.sourceforge.net/DTD/sodipodi-0.dtd"
   xmlns="http://www.w3.org/2000/svg"
   xmlns:svg="http://www.w3.org/2000/svg">
  <sodipodi:namedview
     id="namedview1"
     pagecolor="#ffffff"
     bordercolor="#000000"
     borderopacity="0.25"
     inkscape:showpageshadow="2"
     inkscape:pageopacity="0.0"
     inkscape:pagecheckerboard="0"
     inkscape:deskcolor="#d1d1d1"
     inkscape:document-units="px"
     showguides="true"
     inkscape:zoom="1.4142136"
     inkscape:cx="226.98127"
     inkscape:cy="229.10259"
     inkscape:window-width="1920"
     inkscape:window-height="1051"
     inkscape:window-x="-9"
     inkscape:window-y="-9"
     inkscape:window-maximized="1"
     inkscape:current-layer="layer3" />
  <defs
     id="defs1">
    <rect
       x="2088.9912"
       y="384.61572"
       width="2019.3654"
       height="1223.6375"
       id="rect1" />
    <linearGradient
       id="swatch379"
       inkscape:swatch="solid">
      <stop
         style="stop-color:#000000;stop-opacity:1;"
         offset="0"
         id="stop380" />
    </linearGradient>
    <rect
       x="1161.3887"
       y="1053.9225"
       width="60.331879"
       height="199.84935"
       id="rect4" />
    <rect
       x="614.63104"
       y="816.36572"
       width="695.70197"
       height="235.6714"
       id="rect3" />
  </defs>
  <g
     inkscape:groupmode="layer"
     id="layer3"
     inkscape:label="Trace"
     style="display:inline">
    <path
       id="path185"
       style="display:inline;fill:#550000;fill-opacity:1;stroke:none;stroke-width:0.301988;stroke-linecap:round;stroke-linejoin:bevel;stroke-dasharray:none;stroke-dashoffset:0;stroke-opacity:1;paint-order:normal"
       inkscape:label="hair-left"
       d="m 36.47126,10.6643 -5.18e-4,5.17e-4 c -0.09785,-0.0012 -0.195849,-0.0015 -0.294011,0 -3.497941,0.05281 -7.105418,1.812926 -7.388066,1.953371 l -0.001,-5.17e-4 c 0,0 -1.471318,0.690923 -2.989804,1.928051 C 20.544922,18.908415 17.356033,28.516308 16.07013,32.71725 14.411723,38.135468 5.2140375,53.3376 2.3494382,57.100294 c -2.85734319,3.753147 3.7742662,5.090582 3.7465712,5.188321 0.033075,-0.463689 0.085672,-0.926623 0.1568398,-1.385963 0.1413942,-0.799265 0.313844,-1.591837 0.5269434,-2.375053 0.3118256,-1.161378 0.7459226,-2.284294 1.2210779,-3.387396 0.418539,-0.898223 0.874247,-1.781281 1.4343395,-2.600878 0.2480205,-0.362935 0.602885,-0.821188 0.868057,-1.170473 0.995885,-1.280408 2.135255,-2.440078 3.222217,-3.64216 1.118438,-1.226032 2.229286,-2.462241 3.212901,-3.800807 0.217475,-0.29596 0.423808,-0.600194 0.635643,-0.900205 1.037461,-1.498044 1.766969,-3.174569 2.484601,-4.840538 0.05831,-0.135349 0.146396,-0.197852 0.225167,-0.204123 0.131289,-0.01045 0.237467,0.135132 0.140277,0.360702 -0.72868,1.691194 -1.470897,3.392683 -2.524977,4.912886 -0.214849,0.304106 -0.423893,0.612078 -0.644442,0.91209 -0.990299,1.347075 -2.10778,2.592179 -3.233605,3.826129 -1.07939,1.193641 -2.211287,2.345025 -3.200995,3.615805 -0.253167,0.333375 -0.612765,0.798417 -0.8504589,1.145668 -0.5483289,0.80107 -0.9939491,1.664923 -1.4037997,2.543002 -0.4681937,1.085808 -0.8952389,2.190883 -1.2024429,3.334167 -0.2096336,0.768867 -0.378206,1.547558 -0.5176249,2.332162 -0.072581,0.465893 -0.1257932,0.93572 -0.1578765,1.406117 -0.023499,0.306082 -0.068744,0.611017 -0.075055,0.917775 -0.00351,0.168905 -0.079041,0.26057 -0.1630522,0.284221 -0.010838,1.464926 -0.3991508,3.957267 -2.2273414,6.26371 C 2.2408084,72.08311 0.70459349,73.779636 2.6703649,74.784512 3.497196,75.207175 4.271619,75.9213 4.4515142,76.428341 4.5981,76.286907 4.7459198,76.146874 4.8982241,76.011312 5.4035987,75.576493 5.9547513,75.200718 6.4883688,74.802599 6.9605551,74.418022 7.43905,74.042816 7.9340963,73.687936 c 0.4390853,-0.323961 0.8905952,-0.630007 1.3427202,-0.935345 0.694485,-0.474931 1.3889825,-0.950408 2.0554895,-1.463995 0.866235,-0.663603 1.643028,-1.425164 2.376418,-2.229841 0.842469,-0.98447 1.533762,-2.083382 2.135204,-3.227198 0.721604,-1.54104 1.200236,-3.176658 1.634143,-4.816768 0.176394,-0.664259 0.314471,-1.3374 0.450334,-2.010733 0.03885,-0.192575 0.155687,-0.269196 0.253119,-0.249597 0.09743,0.0196 0.175532,0.135575 0.136652,0.328146 -0.137491,0.681023 -0.277597,1.362131 -0.456027,2.033987 -0.441674,1.668877 -0.929908,3.332476 -1.666753,4.89945 -0.618044,1.173155 -1.32659,2.300983 -2.192661,3.30988 -0.749301,0.821565 -1.542943,1.599188 -2.427663,2.276867 -0.673312,0.518285 -1.374147,0.999173 -2.0756774,1.478465 -0.4490668,0.303269 -0.8973364,0.607301 -1.3334026,0.929144 -0.493106,0.353305 -0.9694092,0.727484 -1.4400339,1.110011 -0.5246536,0.39113 -1.0657215,0.761086 -1.5632279,1.187526 -0.4339448,0.385264 -0.8380599,0.801289 -1.2562764,1.203029 -0.7871592,1.051022 -2.2025342,3.093571 -2.835551,5.064815 C -0.27977958,86.781861 -0.72978902,95.600964 2.000557,92.934335 2.4711847,92.43267 2.8776998,91.487424 3.4079807,90.173776 3.6291315,89.641511 3.829642,89.100733 4.050871,88.568704 4.315462,87.930502 4.5688264,87.287375 4.8594017,86.66029 5.1345813,86.09308 5.4391128,85.540985 5.7611044,84.998891 6.1079112,84.4006 6.4296232,83.787022 6.811884,83.20985 c 0.4336111,-0.642198 0.8977621,-1.265273 1.406388,-1.850537 0.6611346,-0.77433 1.3511712,-1.523821 2.095347,-2.220022 0.900267,-0.857896 1.826786,-1.687542 2.7724,-2.495458 0.888734,-0.755203 1.791417,-1.493672 2.676123,-2.253613 0.373153,-0.327731 0.754662,-0.646019 1.131529,-0.969451 l 0.949325,-0.89142 c -9.08e-4,0.0015 -0.0015,0.0026 -0.0021,0.0041 0.0062,-0.0067 0.0124,-0.01345 0.01863,-0.02015 1.755488,-1.711697 5.3073,-5.886853 6.610592,-12.66798 0.08865,-0.461247 0.150185,-0.888852 0.197216,-1.297598 0.915753,-4.703071 1.050194,-8.134472 1.353589,-9.875897 0.35319,-2.027198 0.20444,-6.287643 0.583364,-10.940434 3.6859,-20.922981 16.458415,-17.483166 16.458415,-17.483166 -0.03071,-0.33811 -0.05951,-0.472358 -0.110254,-0.666626 -0.06297,-0.311918 -0.126157,-0.624496 -0.207568,-0.932244 -0.08725,-0.328764 -0.187717,-0.653438 -0.302811,-0.973585 -0.02469,-0.07252 -0.05327,-0.143472 -0.07919,-0.215492 l -0.0088,-0.0015 C 42.244427,17.154496 42.132943,16.851195 41.990188,16.560122 41.775185,16.13284 41.525767,15.723686 41.265513,15.32247 41.056501,15.018521 40.837714,14.721822 40.616929,14.426399 h 0.0057 c -0.06631,-0.08876 -0.130866,-0.178515 -0.198769,-0.266133 -0.249703,-0.316034 -0.506752,-0.627486 -0.731404,-0.962217 -0.238216,-0.361956 -0.47115,-0.728417 -0.681195,-1.107427 -0.06532,-0.125556 -0.127707,-0.252657 -0.189968,-0.379823 -0.106817,-0.218177 -0.210083,-0.438186 -0.304364,-0.661976 -0.01566,-0.03975 -0.02958,-0.08002 -0.04503,-0.11989 -0.63976,-0.175189 -1.315405,-0.25528 -2.000621,-0.264583 z" />
    <path
       id="path37"
       style="display:inline;fill:#550000;fill-opacity:1;stroke:none;stroke-width:0.301988;stroke-linecap:round;stroke-linejoin:bevel;stroke-dasharray:none;stroke-dashoffset:0;stroke-opacity:1;paint-order:normal"
       inkscape:label="hair-right"
       d="M 63.006799,3.3536436e-4 C 61.41796,-0.00515465 59.803414,0.05719544 58.169592,0.15536489 44.803064,0.95851206 39.662797,8.194622 39.005553,11.011566 c 0.0089,0.0226 0.01697,0.04564 0.02588,0.06821 0.04426,0.104388 0.09871,0.204367 0.14597,0.307475 -0.0031,-0.0012 -0.0061,-0.0028 -0.0093,-0.0041 0.106142,0.231948 0.216496,0.46168 0.334386,0.687815 0.202198,0.362628 0.425325,0.714197 0.65376,1.060918 0.216709,0.321555 0.464269,0.621005 0.704488,0.925009 0.300532,0.38762 0.585029,0.786634 0.862881,1.190627 0.274409,0.420716 0.534384,0.850782 0.76091,1.299148 0.188179,0.383206 0.34271,0.779818 0.480356,1.183392 0.119262,0.331575 0.222449,0.668321 0.313163,1.008725 0.0843,0.318104 0.150174,0.640846 0.215333,0.963251 0.03328,0.159943 0.05371,0.321523 0.0704,0.483691 0.346439,-0.263681 0.914812,-0.703965 2.528598,-1.691372 4.673842,-2.859597 9.649859,-3.461548 14.474354,-3.160535 4.824509,0.301001 12.816144,2.107537 18.093073,12.3419 3.919265,7.601425 3.599754,21.903511 4.101145,32.410474 0.01215,0.04902 0.02697,0.0945 0.03106,0.153479 0.02397,0.344936 0.05154,0.689445 0.07971,1.034046 0.04235,0.602517 0.106949,1.203123 0.201357,1.799893 0.116569,0.888384 0.22741,1.777485 0.365443,2.662891 0.118497,0.779779 0.243763,1.559422 0.417724,2.32906 0.126054,0.560533 0.251237,1.121549 0.384077,1.680521 0.143778,0.512757 0.315593,1.016245 0.502097,1.515155 0.210383,0.55302 0.440306,1.09826 0.68016,1.639178 0.225673,0.493177 0.477445,0.973142 0.744345,1.445392 0.294663,0.511722 0.588244,1.026093 0.93069,1.50792 0.430576,0.576358 0.890341,1.130484 1.42761,1.612308 0.609908,0.547836 1.251585,1.062125 1.925046,1.530141 0.697219,0.456034 1.412228,0.883836 2.149705,1.272276 0.652094,0.341797 1.307595,0.681792 1.996991,0.944129 0.567815,0.230467 1.134767,0.463282 1.706609,0.683681 0.417854,0.154919 0.831743,0.318848 1.247995,0.478008 0.316837,0.12423 0.632993,0.250572 0.945182,0.386024 0.221058,0.107061 0.430867,0.233133 0.640826,0.360184 0.274537,0.189472 0.528399,0.406593 0.79352,0.60875 0.185053,0.146867 0.373703,0.289218 0.560063,0.4346 0.65644,0.428636 1.49676,1.03715 2.45302,1.758034 0.36068,0.1763 0.72662,0.34214 1.10099,0.48886 0.77311,0.243734 1.49629,0.38137 2.30965,0.40721 0.91089,0.101527 1.81526,0.24457 2.7196,0.392742 0.68081,0.144278 1.35267,0.312414 2.00063,0.571542 0.724,0.287855 1.44684,0.585283 2.11242,0.994773 0.71867,0.456176 1.37235,1.00625 2.00839,1.569933 0.2819,0.285851 0.5121,0.600273 0.71173,0.934828 0.16615,0.07605 0.33833,0.136414 0.51452,0.186035 0.59574,-0.530901 0.75054,-1.352263 0.10922,-2.52388 -0.57122,-1.043561 -1.08777,-1.889635 -1.4654,-2.695447 -0.33479,-0.449291 -0.77705,-0.797438 -1.22935,-1.126032 -0.71393,-0.506453 -1.50648,-0.890398 -2.31068,-1.230417 -0.8709,-0.364075 -1.76015,-0.681279 -2.62385,-1.062469 -0.98202,-0.47379 -1.92577,-1.021223 -2.82312,-1.639179 -1.16419,-0.8309 -2.15071,-1.866435 -3.08557,-2.939877 -0.17752,-0.203835 -0.0911,-0.39072 0.0642,-0.391191 0.0705,-2.15e-4 0.15537,0.03807 0.23603,0.130742 0.91275,1.048628 1.87474,2.061218 3.01103,2.873731 0.87628,0.604735 1.79966,1.137967 2.75843,1.602488 0.86144,0.380894 1.74948,0.696228 2.61814,1.060402 0.83173,0.352901 1.65185,0.749534 2.38988,1.27486 0.21375,0.155977 0.42486,0.316593 0.62529,0.488342 -0.2865,-0.92378 -0.33827,-1.873106 0.008,-3.092322 0.47332,-1.650904 -0.38982,-2.663232 -1.13464,-3.864886 -0.03,-0.02069 -0.0604,-0.04717 -0.09,-0.08165 -0.26273,-0.305487 -0.60948,-0.530321 -0.93847,-0.758611 -0.37944,-0.308205 -0.77076,-0.583318 -1.21175,-0.795301 -0.71783,-0.311801 -1.46162,-0.556274 -2.20198,-0.807704 -0.58551,-0.216742 -1.18155,-0.392041 -1.78632,-0.545187 -0.55284,-0.141797 -1.09425,-0.320833 -1.63881,-0.490411 -0.48595,-0.145793 -0.96013,-0.325071 -1.40379,-0.571542 -0.33449,-0.214959 -0.67835,-0.414486 -1.00782,-0.637172 -0.34309,-0.189894 -0.63367,-0.452346 -0.89808,-0.738457 -0.0414,-0.04781 -0.0828,-0.09585 -0.12423,-0.14366 -0.17684,-0.204428 -0.09,-0.390762 0.0652,-0.390675 0.0705,3.9e-5 0.15525,0.03877 0.23552,0.131776 0.0386,0.04473 0.0767,0.08911 0.11542,0.133842 0.24263,0.264964 0.51199,0.504283 0.82872,0.678512 0.3195,0.217005 0.65481,0.40955 0.97884,0.619602 0.41854,0.235056 0.86889,0.399675 1.32771,0.538985 0.53769,0.16755 1.07328,0.344481 1.61913,0.484726 0.61482,0.155761 1.22087,0.333972 1.81634,0.553972 0.75574,0.256666 1.51493,0.506455 2.24702,0.826308 0.45859,0.222565 0.87129,0.503407 1.26558,0.826307 0.0928,0.06435 0.18651,0.128607 0.27953,0.194304 -0.0103,-0.02372 -0.0236,-0.04476 -0.0337,-0.06873 -0.28826,-0.691876 -0.44448,-1.49136 -0.27952,-2.505794 0.71768,-3.549783 -6.182,-5.719459 -8.44351,-6.471966 -2.2611,-0.752589 -9.34732,-4.666722 -7.538141,-15.352574 C 98.561691,42.275606 95.771881,32.190626 93.058048,22.407787 90.274298,13.250625 85.57605,7.3294318 76.452114,2.7495256 72.310172,0.6440379 67.773396,0.01680488 63.006799,3.3536436e-4 Z M 106.62863,87.544993 c 0.008,0.0021 0.0159,0.0031 0.0238,0.0052 0.20753,0.03003 0.41697,0.03977 0.62581,0.05581 -0.006,-0.001 -0.0127,-0.0026 -0.0191,-0.0036 -0.20902,-0.03079 -0.41957,-0.04656 -0.63047,-0.05736 z m 7.55837,4.646234 c 0.003,0.0033 0.005,0.0065 0.008,0.0098 0.004,-2.15e-4 0.007,2.21e-4 0.0108,0 -0.006,-0.0034 -0.0125,-0.0064 -0.0186,-0.0098 z" />
    <path
       id="path603"
       style="display:inline;fill:#808000;fill-opacity:1;stroke:none;stroke-width:0.194038;stroke-linecap:round;stroke-linejoin:bevel;stroke-dasharray:none;stroke-dashoffset:0;stroke-opacity:1;paint-order:normal"
       d="m 27.034284,117.33956 c -2.360329,0.0798 -2.072544,1.6759 -2.072544,1.6759 0.15478,2.12254 0.525559,2.69941 5.933275,3.11477 6.945653,0.53346 12.095152,-1.09613 12.095152,-1.09613 0,0 3.531285,-1.23025 9.984364,-0.42733 6.709249,0.83481 9.845253,0.33858 9.845253,0.33858 4.469836,-0.61545 5.944854,-1.75989 13.591159,-0.86813 5.593958,0.65242 5.80582,0.33235 7.276186,0.34395 1.250261,0.01 5.55367,-0.49727 0.05627,-0.80502 -1.915077,-0.1072 -3.62129,0.065 -9.1761,-1.04334 -4.382196,-0.87435 -9.022405,-0.12013 -9.022405,-0.12013 0,0 -3.546317,0.80111 -7.450819,0.56278 -3.433785,-0.20961 -9.203382,-1.59564 -14.822326,-0.72525 -5.618925,0.87039 -9.542593,0.24176 -14.144298,-0.72533 -0.862825,-0.18133 -1.548514,-0.24374 -2.093195,-0.22532 z m 0.135769,1.69443 c 0.167704,-3e-5 0.303666,0.13566 0.303684,0.30306 3.6e-5,0.16744 -0.135964,0.30319 -0.30369,0.30315 -0.167698,-10e-6 -0.303611,-0.13578 -0.303584,-0.30317 -9e-6,-0.16735 0.135934,-0.30302 0.303587,-0.30305 z"
       sodipodi:nodetypes="scscscsssscsssssssss"
       inkscape:label="hair-stick" />
    <path
       id="path38"
       style="display:inline;fill:#550000;fill-opacity:1;stroke:none;stroke-width:0.301988;stroke-linecap:round;stroke-linejoin:bevel;stroke-dasharray:none;stroke-dashoffset:0;stroke-opacity:1;paint-order:normal"
       inkscape:label="shoulder-left"
       d="m 19.26902,73.366509 c -1.158029,-0.03704 -2.299994,0.899087 -2.356748,0.946196 -0.0035,0.0032 -0.0084,0.005 -0.0119,0.0083 -0.02971,0.02788 -0.05914,0.04926 -0.088,0.0646 -0.09694,0.08323 -0.194926,0.164764 -0.290906,0.249081 -0.887165,0.762473 -1.792921,1.503341 -2.684405,2.260847 -0.936235,0.80012 -1.853959,1.621665 -2.745484,2.471171 -0.728226,0.681192 -1.4030657,1.414215 -2.0497953,2.171964 -0.4926935,0.567064 -0.9433069,1.170577 -1.3629078,1.793174 -0.3730584,0.565756 -0.6881545,1.166001 -1.0274859,1.751834 -0.3135985,0.528651 -0.6117093,1.066723 -0.8794456,1.620058 -0.2846054,0.6162 -0.5336786,1.248131 -0.7935188,1.874824 -0.2211057,0.532363 -0.4216863,1.072644 -0.6428912,1.605072 -0.2035225,0.505122 -0.4129127,1.008263 -0.6413376,1.502754 -0.3819613,1.009031 -0.9639172,3.438156 -0.1211245,5.040008 0.0011,0.003 0.0019,0.007 0.00311,0.01 0.0025,0.006 0.00531,0.0128 0.00781,0.0191 2.8180468,4.647348 5.9998557,5.783248 8.1784787,6.732418 -0.300832,-0.25889 -0.604305,-0.51503 -0.90895,-0.76895 -0.813755,-0.67927 -1.5936158,-1.38947 -2.2863509,-2.19211 C 7.8503098,99.663676 7.5158195,98.620035 7.2917389,97.541493 7.1232957,96.604332 7.2536559,95.67089 7.4578972,94.753029 c 0.037342,-0.1678 0.1327207,-0.2457 0.2210256,-0.24805 0.1135358,-0.003 0.2155816,0.11869 0.1671931,0.33435 -0.1935369,0.862581 -0.3207284,1.739893 -0.1651227,2.621544 0.2087062,1.012631 0.5161926,1.995073 1.1874329,2.807077 0.6776341,0.78691 1.4434149,1.48014 2.2397649,2.14612 0.681978,0.56848 1.361377,1.14308 2.001139,1.75907 2.364033,1.56489 5.553648,7.87945 9.328124,9.13538 3.74489,1.09916 15.247111,-0.31967 16.811432,-1.0537 2.563162,-1.27926 1.130475,-1.88138 -1.357213,-3.61218 -2.487779,-1.73089 -3.166245,-3.23621 -5.654021,-10.159606 -2.48769,-6.923384 -7.689588,-9.106192 -9.649569,-14.223438 -0.855311,-2.23307 -1.121915,-5.170092 -1.156375,-7.798503 -0.0018,-0.01008 -0.0031,-0.0199 -0.0047,-0.02997 -0.0024,-0.586124 -0.128291,-1.218206 -0.459652,-1.86087 -0.4535,-0.879555 -1.076271,-1.183137 -1.698328,-1.20303 z" />
    <path
       id="path95"
       style="display:inline;fill:#550000;fill-opacity:1;stroke:none;stroke-width:0.301988;stroke-linecap:round;stroke-linejoin:bevel;stroke-dasharray:none;stroke-dashoffset:0;stroke-opacity:1;paint-order:normal"
       inkscape:label="shoulder-right"
       d="m 84.498599,75.367423 c -0.287315,-0.0047 -0.522181,0.03948 -0.655314,0.07183 l -10e-4,-5.16e-4 c 0,0 -0.264276,0.03127 -0.477768,0.148311 -0.691859,0.289413 -1.235645,1.074966 -1.215901,2.848409 0.0068,0.611824 0.03559,1.158752 0.08023,1.648481 0.08955,0.620916 0.13807,1.039495 0.195662,1.577167 0,0 0.16718,0.977564 0.353021,2.413809 0.0053,0.01032 0.01037,0.02096 0.01605,0.03101 0.02074,0.07579 0.02294,0.111697 0.0062,0.157097 0.138758,1.095069 0.284311,2.399355 0.378384,3.87057 0.226049,3.536889 -0.226158,8.880489 -3.919976,13.621419 -1.201832,1.62596 -2.089754,3.02177 -2.740308,4.23746 -0.41386,0.60523 -1.607436,2.29355 -3.244992,4.07883 -1.558408,1.69897 2.301442,2.60819 4.168953,2.93833 2.872462,0.73439 7.580319,-0.60486 9.128838,-1.09503 2.549587,-0.80696 3.216265,-2.23014 4.805118,-3.71708 0.121231,-0.35432 0.266523,-0.70113 0.410473,-1.04645 0.206243,-0.57142 0.500262,-1.09267 0.856674,-1.58234 0.40261,-0.55223 0.934535,-0.98597 1.481955,-1.387 0.746862,-0.51585 1.559714,-0.91519 2.365554,-1.32757 0.986952,-0.50126 1.95403,-1.03952 2.904391,-1.60662 0.563938,-0.34213 1.080547,-0.75336 1.601527,-1.15548 0.0778,-0.0601 0.15156,-0.0852 0.21327,-0.0858 0.18514,-0.002 0.26355,0.21979 0.0301,0.39998 -0.53356,0.4117 -1.06318,0.83186 -1.640868,1.18184 -0.957843,0.57137 -1.932013,1.11391 -2.926657,1.61902 -0.78719,0.40282 -1.581871,0.79234 -2.312236,1.29501 -0.515017,0.37571 -1.01634,0.78216 -1.395511,1.30018 -0.338994,0.46408 -0.616155,0.95865 -0.811119,1.50121 -0.04568,0.10948 -0.09145,0.2192 -0.136657,0.32918 0.160547,-0.12824 0.328446,-0.25612 0.509858,-0.38395 2.563022,-1.80607 6.106325,-0.67787 8.51856,-2.63448 0.72019,-0.58414 1.36845,-1.27296 1.93799,-1.95492 0.0316,-0.0341 0.0747,-0.0837 0.12216,-0.14469 0.0135,-0.0165 0.0285,-0.0331 0.042,-0.0496 -3e-4,-0.001 -3e-5,-0.004 -5.2e-4,-0.006 0.0265,-0.0364 0.0536,-0.075 0.0802,-0.11731 -1.4e-4,-9.1e-4 -2.2e-4,-0.002 -5.2e-4,-0.003 -1.1e-4,-9.1e-4 -4.3e-4,-0.002 -5.2e-4,-0.002 0.17995,-0.23384 0.64227,-1.03659 0.64496,-1.04128 9.2e-4,-3e-4 0.002,-9.4e-4 0.003,-0.001 0.16126,-0.16671 0.31605,-0.33781 0.45603,-0.52297 0.20245,-0.24629 0.38157,-0.50899 0.55075,-0.778765 0.199,-0.320261 0.35878,-0.662041 0.51711,-1.003562 0.18865,-0.42299 0.36817,-0.849761 0.53419,-1.282092 0.14778,-0.39736 0.24596,-0.809811 0.32558,-1.225251 0.0625,-0.331221 0.0937,-0.666541 0.11491,-1.002522 0.007,-0.26332 -0.002,-0.526721 -0.0155,-0.789621 -0.0385,-0.985232 -2.12067,-3.463901 -3.80506,-5.276685 -2.554145,-2.748925 -2.766027,-5.19881 -4.099074,-5.735576 -0.169762,-0.09984 -0.337071,-0.202282 -0.515037,-0.287322 -0.295623,-0.126281 -0.593669,-0.245999 -0.892957,-0.363285 -0.411805,-0.157568 -0.821576,-0.319556 -1.235054,-0.47284 -0.579113,-0.222882 -1.153448,-0.458602 -1.728354,-0.691949 -0.712045,-0.271472 -1.389381,-0.6221 -2.063252,-0.975135 -0.759082,-0.399488 -1.494606,-0.840021 -2.212329,-1.308966 -0.706145,-0.48816 -1.377123,-1.027315 -2.016149,-1.599905 -0.574415,-0.514886 -1.067333,-1.106112 -1.52803,-1.721861 -0.01222,-0.01711 -0.02296,-0.03525 -0.03468,-0.05271 l 0.0041,-0.0026 c 0,0 -0.558555,-0.689886 -1.05285,-0.727605 -0.007,-6.04e-4 -0.01462,-7.39e-4 -0.02174,-0.001 -0.23099,-0.0729 -0.45697,-0.101064 -0.658419,-0.104386 z m 22.877481,22.050364 c -0.004,0.0311 -0.009,0.062 -0.0139,0.093 0.0126,0.005 0.0246,0.0122 0.0363,0.0202 -0.008,-0.0383 -0.013,-0.0745 -0.0222,-0.11317 z" />
    <path
       id="path163"
       style="fill:#550000;fill-opacity:1;stroke:none;stroke-width:0.301988;stroke-linecap:round;stroke-linejoin:bevel;stroke-dasharray:none;stroke-dashoffset:0;stroke-opacity:1;paint-order:normal"
       d="m 71.082656,33.674959 c -0.333323,0.0127 -0.685545,0.104645 -1.055387,0.291186 -3.3e-5,-1.6e-4 1.2e-5,-2.99e-4 -3.9e-5,-6.03e-4 l -6e-6,-1.6e-4 c -3.96958,1.522493 -6.794643,1.873952 -8.610064,1.854813 -0.809345,-0.08022 -1.677616,-0.353522 -2.358916,-0.365389 -0.0061,-0.0012 -0.01299,-0.0024 -0.02076,-0.0027 -0.22453,-0.01128 -0.448174,0.0478 -0.448174,0.0478 l 9.06e-4,0.0021 c -0.08001,0.02049 -0.156609,0.04612 -0.226045,0.08289 -0.700682,0.369511 -0.960819,1.322432 -0.559265,3.602434 0.401556,2.279985 2.464362,1.135524 2.464362,1.135524 0,0 1.788386,-0.530393 6.319551,-1.846429 4.531191,-1.316063 7.514077,1.004238 7.514077,1.004238 0,0 1.403182,0.364853 0.960634,-1.213796 -0.373404,-1.331991 -1.766781,-4.675576 -3.980863,-4.591934 z"
       inkscape:label="eyebrow-right" />
    <path
       id="path163-1"
       style="display:inline;fill:#550000;fill-opacity:1;stroke:none;stroke-width:0.301988;stroke-linecap:round;stroke-linejoin:bevel;stroke-dasharray:none;stroke-dashoffset:0;stroke-opacity:1;paint-order:normal"
       d="m 37.049273,33.652194 c 0.333335,0.0124 0.685542,0.104641 1.055383,0.291181 3.6e-5,-1.6e-4 -9e-6,-3.02e-4 3.3e-5,-6.04e-4 l 6e-6,-1.63e-4 c 3.969587,1.522499 6.794644,1.873955 8.610059,1.854816 0.809351,-0.08022 1.677625,-0.353523 2.358922,-0.365396 0.006,-0.0015 0.01296,-0.0024 0.02076,-0.0027 0.224522,-0.01129 0.448169,0.04777 0.448169,0.04777 l -9.06e-4,0.0021 c 0.08001,0.02049 0.156617,0.04612 0.22605,0.08289 0.70068,0.369508 0.960819,1.322433 0.559266,3.602435 -0.40156,2.279981 -2.464362,1.135526 -2.464362,1.135526 0,0 -1.788389,-0.530396 -6.319555,-1.846432 -4.531188,-1.316063 -7.514076,1.004238 -7.514076,1.004238 0,0 -1.403179,0.364853 -0.960634,-1.213795 0.373407,-1.331985 1.766781,-4.675576 3.980866,-4.591934 z"
       inkscape:label="eyebrow-left" />
    <path
       style="fill:#550000;fill-opacity:1;stroke:none;stroke-width:0.301988;stroke-linecap:round;stroke-linejoin:bevel;stroke-dasharray:none;stroke-dashoffset:0;stroke-opacity:1;paint-order:normal"
       d="m 34.850541,45.51112 c 0.01596,-0.0726 0.08716,-0.914809 0.22616,-1.053585 0.04295,-0.04288 0.298492,-0.01653 0.376938,-0.07526 0.113719,-0.08514 0.18327,-0.222309 0.301547,-0.301023 0.143585,-0.09556 1.253803,0.06564 1.583133,-0.07526 0.728858,-0.311824 -0.09284,0.03669 0.527709,-0.376282 0.278126,-0.185094 0.559824,-0.06439 0.829261,-0.22577 0.112018,-0.06709 0.298028,-0.18287 0.376934,-0.301023 0.01393,-0.02088 -0.01777,-0.05752 0,-0.07526 0.03171,-0.03166 0.273941,0.01379 0.30155,0 0.06358,-0.03173 0.08939,-0.114761 0.150776,-0.150514 0.516251,-0.300621 1.361068,-0.643333 1.884679,-0.827819 0.26996,-0.09511 0.799622,0 1.055424,0 0.77574,0 1.513502,-0.06286 2.261614,0.150513 0.442139,0.126108 0.01179,0.0059 0.452325,0.22577 0.128285,0.06403 0.330893,0.0899 0.452323,0.150513 0.03178,0.01587 0.04054,0.0683 0.0754,0.07526 0.09856,0.01967 0.201647,-0.01107 0.301548,0 0.297167,0.03296 0.710248,0.178241 0.980035,0.225766 0.224092,0.03948 0.456349,0.02598 0.678485,0.07526 0.534592,0.118595 0.82926,0.165413 0.82926,0.677306 0,0.07526 -0.05887,0.178758 0,0.22577 0.51043,0.407634 1.788189,0.267899 1.281583,1.279355 -0.06467,0.129127 -0.23178,0.09287 -0.301551,0 -0.127169,-0.169266 -0.136152,-0.252448 -0.301546,-0.37628 -0.195549,-0.146406 -0.124982,-0.02495 -0.376938,-0.07526 -0.246082,-0.04913 -0.503936,-0.277292 -0.678486,-0.451539 -0.23391,-0.233503 0.206403,0.190179 -0.376934,-0.225767 -0.271419,-0.193535 -0.694653,-0.61012 -0.980037,-0.752562 -0.121035,-0.06042 -0.255897,-0.0901 -0.376935,-0.150513 -0.04495,-0.02245 -0.115234,0.03548 -0.150774,0 -0.01777,-0.01774 0.01777,-0.05752 0,-0.07526 -0.22132,-0.220936 -0.707918,-0.315715 -0.980035,-0.451537 -0.02249,-0.01122 -0.05762,0.01774 -0.07539,0 -0.01777,-0.01774 0.01777,-0.05752 0,-0.07526 -0.07107,-0.07095 -0.202402,0.01651 -0.30155,0 -0.213411,-0.03551 -0.39328,-0.173405 -0.603097,-0.225769 -0.17815,-0.04446 -0.420304,0 -0.603098,0 -0.97817,0 -3.21341,-0.09405 -3.920135,0.376282 -0.140664,0.09361 -0.02061,0.116418 -0.0754,0.225766 -0.03178,0.06346 -0.11899,0.08705 -0.150775,0.150514 -0.01124,0.02245 0.01777,0.05752 0,0.07526 -0.01777,0.01774 -0.05762,-0.01774 -0.0754,0 -0.04135,0.04128 0.0096,0.194303 -0.150775,0.301023 -0.104542,0.06958 -0.189167,0.169679 -0.301547,0.22577 -0.192038,0.09585 -0.451282,0.07422 -0.603101,0.22577 -0.03973,0.03966 -0.03565,0.110848 -0.07538,0.150512 -0.03466,0.0346 -0.242264,0.12092 -0.301551,0.15051 -0.107492,0.05365 -0.465797,0.08198 -0.603097,0.150514 -0.177717,0.08871 -0.282393,0.263193 -0.452322,0.376282 -0.02629,0.0175 -0.345939,0.06752 -0.376938,0.07526 -0.145365,0.03628 -0.259997,0.147942 -0.376935,0.225767 -0.329257,0.219122 0.02484,-0.03335 -0.30155,0.07526 -0.06742,0.02245 -0.08335,0.128074 -0.150775,0.150513 -0.04767,0.01587 -0.105821,-0.02245 -0.150772,0 -0.06357,0.03173 -0.09392,0.10794 -0.150775,0.150513 -0.164283,0.122996 -0.430518,0.121798 -0.603098,0.15051 z"
       id="path599"
       inkscape:label="eye-left" />
    <path
       style="fill:#550000;fill-opacity:1;stroke:none;stroke-width:0.301988;stroke-linecap:round;stroke-linejoin:bevel;stroke-dasharray:none;stroke-dashoffset:0;stroke-opacity:1;paint-order:normal"
       d="m 59.803714,45.887403 c 0.05495,-0.45418 -0.148272,-1.182341 0.150778,-1.580378 0.155031,-0.206353 1.063048,-0.429725 1.281577,-0.451539 0.125026,-0.01249 0.252258,0.01557 0.376934,0 0.271852,-0.03392 0.424355,-0.153286 0.678489,-0.225767 0.545231,-0.15551 1.070773,-0.232338 1.583129,-0.451539 0.501586,-0.214591 0.995812,-0.356445 1.507746,-0.526793 0.270507,-0.09001 2.783324,0 3.241652,0 0.814349,0 1.606563,-0.260347 2.337005,0.225769 0.179456,0.119433 0.188236,0.507634 0.301547,0.677306 0.208411,0.31207 0.522104,0.423558 0.603097,0.827819 0.01478,0.07379 -0.01828,0.152758 0,0.225767 0.0086,0.03442 0.06842,0.04047 0.0754,0.07526 0.03223,0.160923 -0.06772,0.519597 0,0.677306 0.124536,0.290092 0.448944,0.483308 0.753866,0.526793 0.09951,0.01418 0.204901,-0.02758 0.301553,0 0.06215,0.01774 0.464669,0.213438 0.301548,0.376282 -0.05501,0.05492 -0.526729,0.01907 -0.603101,0 -0.267143,-0.06667 -0.432619,-0.166767 -0.52771,-0.451539 -0.03178,-0.09519 0.04494,-0.211275 0,-0.301023 -0.07506,-0.149867 -0.250787,-0.217071 -0.376935,-0.301026 -0.05914,-0.03936 -0.0872,-0.11878 -0.150775,-0.15051 -0.06742,-0.03366 -0.153024,0.01826 -0.22616,0 -0.225812,-0.05636 -0.147786,-0.14753 -0.226162,-0.22577 -0.01777,-0.01774 -0.05762,0.01774 -0.07539,0 -0.100306,-0.100136 -0.0754,-0.382162 -0.0754,-0.526792 0,-0.100342 0.08365,-0.245367 0,-0.301027 -0.234251,-0.155901 -0.171729,-0.03429 -0.376934,-0.07526 -0.397077,-0.07928 -0.06317,-0.05928 -0.452322,-0.225769 -0.09523,-0.04074 -0.203252,-0.04255 -0.301545,-0.07525 -0.27909,-0.09287 -0.367329,-0.333857 -0.6031,-0.451539 -0.04494,-0.02245 -0.103099,0.01587 -0.150775,0 -0.03372,-0.01122 -0.04091,-0.06665 -0.0754,-0.07526 -0.189203,-0.04722 -0.413888,0.04722 -0.6031,0 -0.43432,-0.108391 0.132776,-0.04212 -0.301544,-0.15051 -0.185244,-0.04623 -0.343797,-0.08931 -0.527713,-0.150513 -0.09524,-0.03169 -1.443989,-0.121556 -1.58313,-0.07526 -0.219203,0.07294 -0.167834,0.198302 -0.301548,0.37628 -0.107,0.142421 -0.663197,0.410094 -0.829262,0.451539 -0.427317,0.106643 -0.974293,0.07526 -1.432355,0.07526 -0.149545,0 -0.387625,-0.04661 -0.527713,0 -0.03371,0.01123 -0.04167,0.06404 -0.07539,0.07525 -0.149497,0.04975 -0.387865,-0.0698 -0.52771,0 -0.03178,0.01587 -0.05025,0.05017 -0.07538,0.07526 -0.05025,0.05017 -0.08721,0.118784 -0.150779,0.150513 -0.04495,0.02245 -0.103089,-0.01587 -0.150769,0 -0.196065,0.06524 -0.385313,0.303814 -0.603097,0.376283 -0.326402,0.108609 0.02772,-0.14387 -0.301553,0.07526 -0.220384,0.146669 -0.323715,0.388074 -0.452322,0.60205 -0.03133,0.05213 -0.224583,0.14736 -0.226158,0.15051 -0.02249,0.04488 0.02246,0.10564 0,0.150513 -0.09104,0.181762 -0.53314,0.492312 -0.6031,0.602049 -0.08533,0.133852 -0.100514,0.301026 -0.150777,0.451538"
       id="path600"
       inkscape:label="eye-right" />
  </g>
</svg>
