<?xml version="1.0" encoding="UTF-8" standalone="no"?>
<svg
   width="512"
   height="512"
   viewBox="0 0 135.46667 135.46667"
   version="1.1"
   id="svg1"
   inkscape:version="1.3.2 (091e20e, 2023-11-25, custom)"
   sodipodi:docname="steff_logo.svg"
   xmlns:inkscape="http://www.inkscape.org/namespaces/inkscape"
   xmlns:sodipodi="http://sodipodi.sourceforge.net/DTD/sodipodi-0.dtd"
   xmlns="http://www.w3.org/2000/svg"
   xmlns:svg="http://www.w3.org/2000/svg">
  <sodipodi:namedview
     id="namedview1"
     pagecolor="#ffffff"
     bordercolor="#000000"
     borderopacity="0.25"
     inkscape:showpageshadow="2"
     inkscape:pageopacity="0.0"
     inkscape:pagecheckerboard="0"
     inkscape:deskcolor="#d1d1d1"
     inkscape:document-units="px"
     showguides="true"
     inkscape:zoom="1.4142136"
     inkscape:cx="266.93281"
     inkscape:cy="246.07316"
     inkscape:window-width="1920"
     inkscape:window-height="1051"
     inkscape:window-x="-9"
     inkscape:window-y="-9"
     inkscape:window-maximized="1"
     inkscape:current-layer="layer3" />
  <defs
     id="defs1">
    <rect
       x="2088.9912"
       y="384.61572"
       width="2019.3654"
       height="1223.6375"
       id="rect1" />
    <linearGradient
       id="swatch379"
       inkscape:swatch="solid">
      <stop
         style="stop-color:#000000;stop-opacity:1;"
         offset="0"
         id="stop380" />
    </linearGradient>
    <rect
       x="1161.3887"
       y="1053.9225"
       width="60.331879"
       height="199.84935"
       id="rect4" />
    <rect
       x="614.63104"
       y="816.36572"
       width="695.70197"
       height="235.6714"
       id="rect3" />
  </defs>
  <g
     inkscape:label="Sketch"
     inkscape:groupmode="layer"
     id="layer1"
     style="display:none;opacity:0.053;mix-blend-mode:normal"
     sodipodi:insensitive="true">
    <circle
       id="path1"
       style="fill:#000000;stroke:#000000;stroke-width:0.451964"
       cx="147.7681"
       cy="110.53783"
       r="0.11350168" />
    <path
       id="path4"
       style="fill:#000000;stroke-width:0.451964"
       d="m 210.1298,102.16379 c -5.86133,-0.057 -11.72209,2.01788 -17.27594,3.74912 -7.0984,2.68232 -14.4885,5.94894 -19.5864,11.85613 -4.09875,4.74907 -7.05608,11.15657 -9.10022,16.97984 -1.24201,3.53766 -2.03713,7.21732 -3.05563,10.82569 -4.18385,17.98516 -4.25888,36.50756 -5.83479,54.80906 -1.39034,16.14644 -1.44186,14.77612 -3.84576,30.69942 -2.77912,15.00851 -6.86903,29.81538 -12.61525,43.94615 0.45229,-0.32062 0.9069,-0.63788 1.35754,-0.96377 1.28279,-0.94839 2.57465,-1.88292 3.79047,-2.91868 1.03819,-0.83578 2.05846,-1.6935 3.0825,-2.54662 4.00109,-11.37515 7.01764,-23.10804 9.17515,-34.98494 2.46232,-16.39955 2.37375,-14.12604 3.84679,-30.74489 1.61404,-18.20961 1.97697,-36.63165 6.13761,-54.51864 1.03348,-3.57056 1.84229,-7.21468 3.10059,-10.71252 2.10921,-5.86352 4.98512,-11.89648 9.15654,-16.63309 5.11695,-5.81026 12.39981,-9.02611 19.48098,-11.61841 7.4674,-2.18864 15.64601,-4.9648 23.34121,-2.17197 l -5.30458,-4.1925 c -1.9427,-0.58447 -3.89697,-0.8404 -5.85081,-0.85938 z M 144.4904,275.2111 c -0.0366,0.0214 -0.0735,0.0426 -0.11007,0.0641 0.0243,0.008 0.0547,0.006 0.0775,0.016 0.0106,-0.0268 0.022,-0.0533 0.0325,-0.0801 z m -2.65875,3.72432 c -7.6e-4,9.5e-4 -2e-4,0.004 0.002,0.009 0.0218,0.051 0.052,0.0997 0.0837,0.14779 -0.002,-0.0151 -0.003,-0.0304 -0.006,-0.0455 -0.007,-0.0368 -0.0737,-0.11776 -0.0791,-0.11111 z m 0.31419,0.62477 c -0.0192,0.0156 -0.0387,0.0306 -0.0584,0.0455 v 5.2e-4 c -6.8e-4,0.0153 -0.003,0.0291 -0.004,0.0439 0.0159,-6.1e-4 0.0369,-10e-4 0.0532,-0.002 0.003,-0.0293 0.006,-0.0581 0.009,-0.0879 z m -4.26589,4.593 c -0.86084,0.004 -1.72159,0.0304 -2.58175,0.0625 -0.21314,0.0109 -0.42647,0.0224 -0.63976,0.0357 -2.43893,5.23442 -5.06445,10.38543 -8.03827,15.36236 -2.47173,4.13712 -5.30282,8.04913 -7.95403,12.07369 -3.30389,3.78778 -6.42508,7.74351 -9.91154,11.36416 -6.87843,7.14319 -14.841086,13.88961 -23.470402,19.3828 -0.263153,0.60486 -0.522861,1.21143 -0.803052,1.80867 -0.274007,0.57824 -0.573215,1.14291 -0.888835,1.69757 -0.119888,0.34213 -0.245655,0.68218 -0.37052,1.02268 -0.19989,0.55202 -0.34578,1.12508 -0.449068,1.70274 -0.06623,0.39623 -0.115652,0.79419 -0.156579,1.19321 11.447775,-6.23849 21.893546,-14.72708 30.796566,-23.99596 3.50138,-3.64505 6.66692,-7.59834 10.00043,-11.39775 2.65488,-4.04051 5.48796,-7.97027 7.9654,-12.12226 3.31536,-5.55615 6.22167,-11.31567 8.88215,-17.18293 -0.0656,-0.0571 -0.14744,-0.0942 -0.21653,-0.14676 -0.49394,-0.21984 -0.98788,-0.43982 -1.47639,-0.67179 -0.0746,-0.0346 -0.14851,-0.0706 -0.22273,-0.10594 -0.14427,-0.0251 -0.28751,-0.0559 -0.43201,-0.0785 -0.011,-10e-4 -0.0221,-0.003 -0.0331,-0.004 z m -55.851884,60.22888 c -4.155862,2.44421 -8.432315,4.62153 -12.819889,6.36602 -2.371764,0.94304 -4.868074,1.53748 -7.30188,2.30632 l 5.072042,3.44372 c 0.09448,-0.0324 0.190586,-0.0605 0.285254,-0.0925 0.148385,-0.32197 0.459754,-0.63799 1.011824,-0.85783 0.9018,-0.35911 1.804714,-0.71807 2.660303,-1.18081 1.908633,-0.93518 3.820544,-1.90529 5.44928,-3.2923 1.402743,-1.12767 2.71192,-2.3677 3.836458,-3.77807 0.731739,-0.88341 1.283722,-1.89251 1.806608,-2.91455 z m -1.795756,5.99705 c -0.534885,0.55228 -1.066787,1.10788 -1.649512,1.61075 0.496976,-0.24186 0.984028,-0.5078 1.473295,-0.76842 0.0208,-0.10145 0.04099,-0.20305 0.06253,-0.30438 0.03722,-0.17933 0.075,-0.35865 0.113687,-0.53795 z" />
    <path
       id="path5"
       style="fill:#000000;stroke-width:0.451964"
       d="m 264.43036,87.160569 c -1.48708,-0.0022 -2.9745,0.02987 -4.46019,0.06873 -9.21781,0.240905 -18.48409,1.449025 -27.28981,4.237984 -5.00339,2.072476 -9.73244,4.148336 -12.56719,9.032527 l 5.89525,3.3109 c 2.48306,-4.668878 7.39548,-6.822488 12.03079,-8.764318 8.65672,-2.795965 17.78231,-4.038622 26.86193,-4.281909 2.94886,-0.07896 5.90608,-0.128524 8.84907,0.07338 3.18091,0.218181 6.3281,0.789564 9.49192,1.184423 8.11416,1.89295 10.74462,2.154992 18.4211,5.315438 2.75062,1.132458 5.50575,2.316244 8.0362,3.879866 0.97345,0.60152 1.52036,1.71222 2.32699,2.52388 9.46809,9.52716 3.76888,2.86427 11.90884,13.28704 8.12252,11.91368 12.23833,25.74019 14.4694,39.85958 0.44654,2.826 0.73719,5.6744 1.10587,8.51163 1.86784,19.18241 2.70396,38.44958 3.67885,57.69363 0.79149,13.38337 1.72881,26.91868 4.98574,39.96294 -0.42534,-2.10344 -0.78628,-4.22004 -1.10846,-6.34122 -0.4593,-2.95125 -0.82704,-5.91531 -1.21491,-8.87646 -0.31996,-2.02721 -0.53779,-4.06675 -0.68213,-6.11332 -0.0936,-1.14293 -0.18415,-2.28629 -0.26355,-3.43028 -0.0855,-1.23159 0.49413,-1.89057 1.11621,-1.93373 0.62208,-0.0432 1.28662,0.52953 1.37201,1.76113 0.0793,1.14321 0.17035,2.28555 0.26355,3.4277 0.14011,1.9969 0.35479,3.98659 0.66714,5.96449 0.38567,2.94434 0.751,5.89131 1.20768,8.82582 0.39205,2.58444 0.80731,5.16911 1.38286,7.71994 0.41705,1.8578 0.83174,3.71659 1.27124,5.56917 0.47569,1.69946 1.04383,3.36891 1.66088,5.02243 0.6961,1.8329 1.45643,3.63944 2.24999,5.43223 0.74664,1.63452 1.57935,3.22576 2.46239,4.79092 0.97489,1.69603 1.94585,3.40016 3.07888,4.99711 1.42456,1.9102 2.94552,3.74635 4.72322,5.34334 0.86763,0.78071 1.76442,1.52964 2.67116,2.26602 -4.14796,-4.86316 -7.50637,-10.35882 -10.24124,-16.22899 -1.14112,-3.04821 -2.42799,-6.04584 -3.42356,-9.14466 -4.80709,-14.96258 -5.91394,-30.75363 -6.85023,-46.3336 -0.99953,-19.24406 -1.90799,-38.5024 -3.58996,-57.70139 -0.36458,-2.84747 -0.65192,-5.70563 -1.09399,-8.54211 -2.21199,-14.19375 -6.26013,-28.1149 -14.3676,-40.12882 -3.84932,-4.9959 -6.83247,-9.5052 -11.88196,-13.45499 -12.46408,-9.749612 -23.75948,-14.547483 -39.11182,-17.479555 -3.19538,-0.389662 -6.37412,-0.954012 -9.58598,-1.168921 -1.48288,-0.09922 -2.96949,-0.135812 -4.45658,-0.137975 z M 367.7114,299.6339 c 1.26406,1.26113 2.59392,2.44883 4.04781,3.47317 8.38055,5.90447 17.1622,10.36378 26.98957,13.11238 0.77678,0.21725 1.5633,0.39475 2.34972,0.57154 -0.33835,-0.26809 -0.67656,-0.53622 -1.03404,-0.77773 -0.59269,-0.34744 -1.17397,-0.70771 -1.79421,-1.00459 -0.97789,-0.41853 -1.9652,-0.81586 -2.95537,-1.20458 -1.36265,-0.52222 -2.71796,-1.05828 -4.08606,-1.56631 -1.91602,-0.73869 -3.81478,-1.52106 -5.71696,-2.29443 -2.35583,-0.89973 -4.59734,-2.06128 -6.82697,-3.23133 -2.51146,-1.32401 -4.94423,-2.78351 -7.31894,-4.33772 -1.25175,-0.86682 -2.46791,-1.78523 -3.65455,-2.7404 z m 34.2563,14.69212 c 0.72122,0.53476 1.4181,1.10241 2.13165,1.64745 0.78305,0.62255 1.58062,1.22774 2.35748,1.85828 1.51153,0.25846 3.02547,0.50692 4.52789,0.80357 15.39001,0.87392 7.95074,0.81025 22.31595,0.33125 l -4.77232,-3.44114 c -14.18539,0.53857 -6.82556,0.59303 -22.07772,-0.32349 -1.90006,-0.38728 -3.08714,-0.60817 -4.48293,-0.87592 z" />
    <path
       style="fill:#000000;stroke-width:0.451964"
       id="path6"
       d="m 60.920158,346.59895 c 1.586879,0.86841 3.100919,1.88582 4.76067,2.60527 0.467812,0.20274 -0.769754,-0.67014 -1.129658,-1.03134 -1.820818,-1.82734 -2.839203,-3.86119 -3.704533,-6.26072 -0.739552,-2.58089 -1.170758,-5.42661 -0.30606,-8.04705 0.583354,-1.76785 1.638637,-3.36198 2.566641,-4.94963 3.309491,-5.1999 7.623241,-9.64687 11.643314,-14.28883 0,0 -5.578783,-3.36007 -5.578783,-3.36007 v 0 c -3.99966,4.71354 -8.344722,9.17487 -11.7393,14.36491 -0.932035,1.56101 -2.121958,3.3614 -2.734215,5.10446 -0.945496,2.69171 -0.59967,5.66966 0.126573,8.35396 2.184854,6.73356 4.856927,8.0777 11.348597,11.75914 z" />
    <path
       style="fill:#000000;stroke-width:0.451964"
       id="path7"
       d="m 78.790951,308.08785 c -2.154825,-2.64877 -0.682636,-5.76209 0.660992,-8.46412 1.44426,-2.9044 4.047867,-7.09195 5.67139,-9.79099 4.005546,-6.67946 8.53918,-13.01342 13.02804,-19.37002 0,0 -5.512202,-3.24313 -5.512202,-3.24313 v 0 c -4.377479,6.44484 -8.843297,12.83355 -12.939366,19.46425 -1.533632,2.4781 -4.447229,7.08524 -5.8803,9.76294 -1.267614,2.36858 -2.777024,5.1204 -1.919826,7.92619 0.122993,0.40289 0.446645,0.71439 0.669979,1.07161 z" />
    <path
       style="fill:#000000;stroke-width:0.451964"
       id="path8"
       d="m 97.450587,257.6702 c -4.825166,0.30077 -8.210686,-0.96703 -12.438065,-3.1639 1.097519,0.58239 2.059248,1.59676 3.292588,1.74712 0.831135,0.10129 -1.337048,-1.01296 -1.949919,-1.58344 -0.548082,-0.51017 -1.064886,-1.05879 -1.524015,-1.65027 -1.373849,-1.76985 -1.94511,-3.69799 -2.502038,-5.82297 -0.792988,-3.9608 -0.892474,-7.91468 0.611762,-11.7249 0.363234,-0.92008 0.840919,-1.79075 1.261381,-2.68613 5.158317,-9.35008 10.619882,-18.5208 15.766016,-27.87834 6.868193,-13.03105 13.492793,-26.19022 20.169333,-39.32052 7.54605,-15.11247 14.7704,-30.37994 21.98453,-45.65248 4.62595,-9.30355 9.17755,-18.96121 16.59785,-26.433521 1.1584,-1.166509 2.46256,-2.178557 3.69384,-3.26783 6.76972,-4.769481 14.12449,-6.736197 22.26629,-7.323685 4.23612,0.08352 2.11265,-0.0362 6.3702,0.363656 0,0 -5.25298,-3.88719 -5.25298,-3.88719 v 0 c -4.30038,-0.350509 -2.15798,-0.262551 -6.427,-0.269315 -8.20973,0.731969 -15.61489,2.832231 -22.37517,7.75576 -1.22949,1.120117 -2.53053,2.166395 -3.68845,3.36035 -7.37335,7.602929 -11.97489,17.259665 -16.4953,26.695095 -7.14859,15.29709 -14.33907,30.57443 -21.9516,45.64807 -6.72052,13.09807 -13.42977,26.20366 -20.284701,39.23163 -1.94359,3.50679 -4.354373,7.91165 -6.394663,11.37842 -3.214801,5.46243 -6.662193,10.78988 -9.681784,16.36742 -1.068948,2.22297 -1.607274,3.05045 -2.21644,5.41764 -0.79519,3.09 -0.414087,6.25639 0.06832,9.35996 0.40242,1.72753 0.509781,2.61276 1.273592,4.22376 2.404326,5.07117 7.963786,7.43453 12.516494,10.05692 4.370026,2.14192 7.882774,3.24667 12.784712,3.03631 z" />
    <path
       style="fill:#000000;stroke-width:0.451964"
       id="path9"
       d="m 211.27932,72.910906 c 0.96337,-5.515124 3.03889,-10.962305 5.93997,-15.758828 0.8051,-1.331121 1.73648,-2.581651 2.60475,-3.872498 6.09068,-8.023613 14.4443,-13.67349 23.84295,-17.17487 2.68283,-0.999452 5.45709,-1.733812 8.18564,-2.600713 15.47544,-4.139463 31.58942,-5.760729 47.51397,-3.435576 3.80752,0.555947 7.55204,1.480417 11.32808,2.22062 11.86617,2.943306 22.80291,6.739415 33.38468,12.949345 1.58766,0.931732 3.03335,2.099204 4.42554,3.303638 9.57021,8.279538 8.06084,7.293127 16.00683,17.06696 10.78035,15.682894 17.14048,33.756757 20.86652,52.316706 0.74433,3.70751 1.26825,7.45589 1.90238,11.18381 2.98982,21.26725 3.32686,42.76896 3.15733,64.20544 -0.19832,12.88199 -0.86725,25.95656 1.99031,38.63389 0.50951,2.26045 1.2475,4.46322 1.87131,6.69483 1.88979,4.61134 3.01479,8.20155 6.05818,12.24291 6.03785,8.01773 15.21283,13.10419 23.96715,17.49962 2.37092,1.1904 4.92713,1.96882 7.39074,2.95326 0,0 -4.79529,-3.77366 -4.79529,-3.77366 v 0 c -2.444,-0.99933 -4.89592,-1.97951 -7.33195,-2.998 -0.65319,-0.27308 -1.34938,-0.47793 -1.93465,-0.87626 -4.5029,-3.06479 -8.27681,-5.94217 -11.62501,-10.28792 -3.07599,-3.99256 -4.21051,-7.52384 -6.13379,-12.10056 -0.63294,-2.21269 -1.37918,-4.39608 -1.8988,-6.63808 -2.93547,-12.66584 -2.38095,-25.7605 -2.26833,-38.65104 0.0676,-21.49072 -0.29007,-43.03855 -3.24722,-64.3636 -0.62752,-3.73755 -1.14393,-7.49542 -1.88252,-11.21259 -3.70259,-18.63454 -10.0446,-36.785991 -20.79404,-52.570763 -5.30909,-6.609974 -9.00259,-12.067031 -15.89536,-17.214752 -5.58684,-4.172413 -17.75191,-11.30186 -24.8591,-14.409799 -8.0898,-3.5376 -14.46838,-5.026633 -22.95149,-7.430907 -3.82248,-0.749443 -7.61235,-1.690161 -11.46741,-2.248341 -16.01364,-2.318676 -32.2135,-0.59929 -47.76864,3.54303 -6.48472,2.032648 -9.41175,2.648133 -15.38717,5.6264 -6.74188,3.360276 -12.55706,8.399103 -17.17051,14.307255 -0.88881,1.303845 -1.84205,2.566049 -2.66646,3.911544 -2.98769,4.876247 -5.02152,10.357965 -6.37981,15.891549 z" />
    <path
       style="fill:#000000;stroke-width:0.451964"
       id="path10"
       d="m 431.56682,271.02116 c 2.14788,0.4713 4.26131,1.09392 6.27747,1.98327 0.89577,0.39505 3.42232,1.88563 2.62438,1.31847 -0.99938,-0.71037 -2.02245,-1.56562 -3.2343,-1.75204 -0.83203,-0.12798 1.32398,1.04001 1.98603,1.56 0.81647,0.91147 1.97923,1.82906 2.06541,3.20578 0.18084,2.88932 -4.96107,4.27239 -6.88694,4.93274 -0.89146,0.27056 -1.7829,0.54113 -2.67435,0.81173 0,0 5.43265,3.70376 5.43265,3.70376 v 0 c 0.89213,-0.28007 1.78426,-0.56018 2.67635,-0.8402 2.92833,-1.04704 9.38293,-3.19989 6.9379,-7.61634 -0.36311,-0.65588 -0.95258,-1.15793 -1.42886,-1.73684 -5.3132,-4.42012 -12.305,-8.30078 -19.25048,-9.54795 z" />
    <path
       style="fill:#000000;stroke-width:0.451964"
       id="path11"
       d="m 435.46597,291.45827 c 4.13724,0.0481 8.3556,0.96485 11.90335,3.1944 0.68621,0.43127 -2.51781,-1.69211 -2.2472,-0.92815 0.42646,1.20426 1.88852,1.72102 2.83277,2.58158 1.47692,1.69347 5.70609,6.39592 3.28573,8.96017 -1.18479,1.25526 -3.05506,1.11678 -4.55443,1.28305 -4.57355,-0.36946 -2.26767,-0.10256 -6.9162,-0.81305 0,0 5.20436,3.89867 5.20436,3.89867 v 0 c 4.72928,0.67008 2.36906,0.4387 7.07988,0.70153 1.94084,-0.32474 3.58771,-0.2023 4.99721,-1.82538 2.63876,-3.03866 -1.31326,-7.58872 -3.10296,-9.74725 -0.93671,-0.8915 -1.75051,-1.93332 -2.81013,-2.6745 -6.89776,-4.82432 -12.71228,-8.41424 -21.10915,-8.58111 z" />
    <path
       style="fill:#000000;stroke-width:0.451964"
       id="path12"
       d="m 439.30889,312.90792 c 0.45201,0.19769 1.77328,0.8564 1.35607,0.59301 -1.17569,-0.74207 -2.25197,-2.1008 -3.64071,-2.03504 -1.11423,0.0527 1.80881,1.31653 2.61881,2.08347 3.44443,3.26119 5.80179,7.1565 8.15603,11.21847 1.89143,3.95294 3.68011,8.07056 4.49971,12.40675 0.28747,1.52072 0.58176,3.91044 -0.1469,5.4554 -0.28244,0.59877 -0.89875,0.97236 -1.34807,1.45852 -0.7397,0.1452 -1.46527,0.44117 -2.21908,0.43553 -3.48741,-0.0262 -8.38384,-2.17206 -11.1773,-4.04594 -0.32424,-0.21754 1.40841,0.42226 1.16543,0.11667 -1.15652,-1.45494 -2.72494,-2.52838 -4.08743,-3.79256 -4.62721,-5.23623 -2.45587,-2.62524 -6.53928,-7.81179 0,0 -5.872,-2.51446 -5.872,-2.51446 v 0 c 4.1257,5.24965 1.94409,2.60221 6.56586,7.92492 6.14109,5.89004 3.8278,4.17466 13.75417,10.06946 3.0791,1.82851 7.89352,4.09643 11.63425,3.80472 0.85366,-0.0664 1.63647,-0.50458 2.4547,-0.75689 0.4978,-0.59336 1.17183,-1.07552 1.49345,-1.78006 0.76429,-1.67454 0.48291,-4.10531 0.16397,-5.77503 -0.83843,-4.38981 -2.65103,-8.57169 -4.51614,-12.59826 -0.81012,-1.4399 -1.54875,-2.92244 -2.43031,-4.31972 -4.11293,-6.51892 -9.72028,-11.83543 -17.30202,-14.17652 z" />
    <path
       id="path13"
       style="fill:#000000;stroke-width:0.451964"
       d="m 341.28924,287.22949 c -0.10365,0.24213 -0.20032,0.48791 -0.29043,0.7369 0.0614,0.32337 0.10597,0.64907 0.16279,0.97307 0.16937,-0.24723 0.33972,-0.4938 0.51211,-0.73897 0.13666,-0.19432 0.27652,-0.38575 0.41599,-0.57774 z m 5.81204,4.18114 c -0.16899,0.59926 -0.30782,1.20718 -0.41857,1.82056 -0.19485,1.1053 -0.30754,2.21878 -0.35554,3.34036 -0.0907,1.38511 -0.13208,2.77172 -0.0935,4.15996 0.0168,1.60747 0.0357,3.21559 0.0884,4.82244 0.0324,0.81652 0.0754,1.6325 0.0605,2.44998 -0.0319,1.74564 -1.79682,1.74562 -1.76372,0 0.015,-0.79421 -0.0275,-1.58745 -0.0589,-2.38073 -0.0536,-1.62398 -0.0729,-3.24839 -0.0899,-4.87309 -0.0251,-0.92398 -0.007,-1.84716 0.0274,-2.76986 -0.10099,0.0366 -0.20512,0.0484 -0.30903,0.0362 0.35406,0.90022 -0.11891,1.49539 -0.71158,1.40456 0.28023,1.40853 0.56048,2.81706 0.83561,4.22662 0.29727,1.52305 -1.03515,1.95539 -1.57045,0.83044 0.11013,2.38858 0.19539,4.77803 0.25477,7.1639 0.006,0.49927 -0.0111,0.9945 -0.0186,1.49138 0.19471,1.51329 0.37557,3.02822 0.54157,4.54546 0.30983,2.74421 0.55507,5.49504 0.77721,8.24756 0.14045,1.74028 -1.61761,1.88238 -1.75803,0.14211 -0.10842,-1.34363 -0.22285,-2.68689 -0.34726,-4.02921 -1.69311,10.61505 -5.78218,20.76674 -9.62319,30.81724 -3.58188,9.22123 -7.51669,18.32886 -10.04951,27.91716 -1.49954,5.67642 -1.93747,8.6711 -2.98794,14.39912 -1.08019,6.06993 -1.15148,12.05366 0.74621,17.96738 0.51899,1.61718 1.31304,3.13342 1.96939,4.69997 l 5.78466,2.65617 c -0.6845,-1.54111 -1.50523,-3.0284 -2.05362,-4.62298 -2.00694,-5.83541 -2.01818,-11.7612 -0.99891,-17.80098 1.06466,-5.974 1.37718,-8.42346 2.94298,-14.34486 2.53092,-9.57154 6.4219,-18.686 9.99939,-27.89235 5.11118,-13.33008 10.70197,-26.82263 10.69392,-41.34425 -0.11952,-7.70945 -0.39763,-15.44157 -1.51361,-23.08024 z" />
    <path
       style="fill:#000000;stroke-width:0.451964"
       id="path14"
       d="m 321.4109,409.96842 c 2.125,5.406 7.29464,8.0357 12.6131,9.91948 0.66131,0.23425 1.38659,-0.21498 2.0799,-0.32251 2.49136,-1.96118 3.95672,-4.73374 5.55772,-7.39305 0,0 -5.6667,-3.28462 -5.6667,-3.28462 v 0 c -1.49662,2.49973 -2.83128,5.14064 -5.31074,6.82971 -3.60959,0.2196 -2.22133,-0.27141 1.91392,2.85061 0.57034,0.43059 -1.2349,-0.7294 -1.79168,-1.17742 -1.50277,-1.20923 -2.65606,-2.73412 -3.29139,-4.55545 z" />
    <path
       style="fill:#000000;stroke-width:0.451964"
       id="path15"
       d="m 354.36123,412.8386 c 1.01932,-0.0362 2.06911,0.14196 3.05804,-0.10794 7.25562,-1.83299 13.0465,-8.20401 18.05061,-13.36619 0,0 -5.39153,-3.28998 -5.39153,-3.28998 v 0 c -4.88241,5.10387 -10.63559,11.46916 -17.95606,12.80395 -1.01602,0.1852 -2.06348,-0.091 -3.09523,-0.13666 z" />
    <path
       id="path16"
       style="fill:#000000;stroke-width:0.451964"
       d="m 393.93563,313.27544 c 2.50848,4.73693 5.87756,8.94808 9.31881,13.0452 4.32612,4.87364 2.17666,2.51389 6.54792,7.19904 3.58193,3.83911 7.30017,7.62039 9.86814,12.25352 0.5919,1.21776 1.28518,2.39146 1.7756,3.65352 2.37418,6.10934 2.5422,12.93406 1.12551,19.26808 -0.33908,0.95283 -0.72497,2.79712 -1.7539,3.50263 -1.44167,0.98849 -4.16871,-1.33381 -5.84563,-0.62322 -0.56721,0.25873 -1.21378,0.38815 -1.70171,0.77618 -1.51056,1.20113 -1.77701,2.62265 -2.63343,4.28863 -1.64199,3.19409 -3.63714,5.9953 -6.54895,8.17676 -1.13385,0.69796 -2.21104,1.49842 -3.40186,2.09393 -4.93479,2.46771 -10.62482,3.11079 -16.03055,3.69951 l 5.45186,3.961 c 5.38285,-0.88933 11.02255,-1.53019 15.94322,-4.07004 1.21371,-0.62647 2.31128,-1.4563 3.46697,-2.18436 2.98969,-2.25757 5.04821,-5.15187 6.77633,-8.42016 0.79706,-1.50739 1.16647,-3.10322 2.65772,-4.11706 0.45001,-0.30599 1.0395,-0.32322 1.55907,-0.48472 1.79596,-0.0768 4.15923,2.12439 5.84099,0.71313 1.19965,-1.00667 1.53546,-2.7697 1.99575,-4.12171 1.34362,-6.47629 1.24962,-13.42349 -1.06919,-19.69182 -0.47731,-1.29032 -1.15454,-2.49767 -1.73168,-3.74654 -4.28002,-7.45553 -10.72852,-13.29851 -16.4145,-19.65203 -3.40975,-4.01872 -6.71058,-8.18063 -9.1798,-12.84728 -0.5541,-0.32673 -1.101,-0.66083 -1.68207,-0.93896 -0.97789,-0.41853 -1.9652,-0.81586 -2.95537,-1.20458 -0.45996,-0.17627 -0.92019,-0.35083 -1.37925,-0.52865 z m 24.4166,60.96527 v 5.2e-4 c 0.0154,3e-4 0.0311,6.7e-4 0.0465,5.2e-4 0.0371,0.0892 0.1151,0.17118 0.1111,0.26768 -0.003,0.0617 -0.0844,0.0904 -0.12919,0.13281 -0.0551,0.0521 -0.11401,0.0998 -0.17001,0.15089 -0.17729,0.16172 -0.31338,0.29087 -0.48111,0.46716 -0.0901,0.0947 -0.17648,0.1934 -0.26458,0.2899 -0.2219,0.25554 -0.43007,0.52252 -0.62529,0.79892 -0.098,0.19889 -0.1953,0.39814 -0.29455,0.59635 -0.007,0.014 -0.0153,0.0279 -0.0227,0.0418 -0.003,0.0421 -0.006,0.084 -0.009,0.1261 -0.002,0.0309 -0.005,0.0621 -0.007,0.093 -0.0139,0.18389 -0.13033,0.2494 -0.21704,0.20671 -0.0472,0.0859 -0.0915,0.17345 -0.14056,0.25838 -0.023,0.0398 -0.0506,0.0532 -0.077,0.0754 8e-4,0.006 0.002,0.0127 0.003,0.0191 0.0244,0.16628 0.0542,0.33154 0.076,0.49816 h -5.1e-4 c 0.04,0.30608 -0.26718,0.35704 -0.30748,0.0512 -0.0222,-0.16865 -0.0518,-0.33606 -0.0765,-0.50436 -0.0312,-0.24437 -0.0585,-0.49029 -0.0615,-0.73691 -0.002,-0.16842 0.005,-0.24893 0.0139,-0.41651 0.0247,-0.34842 0.10763,-0.68763 0.2837,-0.99167 0.038,-0.0655 0.0827,-0.12719 0.12403,-0.19069 0.24862,-0.34152 0.58385,-0.59539 0.95498,-0.79116 0.0796,-0.042 0.16198,-0.0785 0.24288,-0.11783 0.21948,-0.0967 0.44587,-0.17729 0.67541,-0.24649 0.068,-0.0205 0.22634,-0.0668 0.30644,-0.077 0.0153,-0.002 0.0305,-0.002 0.046,-0.002 z" />
    <path
       id="path19"
       style="fill:#000000;stroke-width:0.451964"
       d="m 145.27847,286.36546 c 0.008,0.0392 0.01,0.0774 0.008,0.11472 0.0589,0.0933 0.10291,0.19588 0.15916,0.29094 0.0109,0.007 0.0227,0.0129 0.0336,0.0196 0.069,0.0429 0.13921,0.0836 0.20877,0.12557 -0.074,-0.14834 -0.14094,-0.30041 -0.2191,-0.44649 z m 1.7911,0.97978 c 0.0763,0.16976 0.14762,0.34143 0.22169,0.51212 0.47327,0.28878 0.52997,0.66811 0.34727,0.88263 0.17253,0.79345 -0.66485,1.07029 -1.03715,0.18604 -0.0468,-0.11105 -0.0964,-0.22129 -0.14366,-0.33228 -0.0441,-0.0259 -0.0886,-0.0512 -0.13281,-0.077 0.57147,1.35508 0.98823,2.77018 1.37356,4.18786 0.27477,1.01088 -0.7468,1.28851 -1.02112,0.2775 -0.42659,-1.57218 -0.87952,-3.14687 -1.57045,-4.62711 -0.13092,-0.27394 -0.27202,-0.54253 -0.4222,-0.80563 -0.1076,-0.0643 -0.21615,-0.12712 -0.32452,-0.19017 0.0212,0.19667 0.0415,0.39359 0.0594,0.59066 3.1e-4,0.003 2.3e-4,0.006 5.2e-4,0.01 0.0508,0.15998 0.10495,0.31889 0.15193,0.48007 0.35668,1.2303 0.74506,2.45273 0.98754,3.71295 0.25923,1.2989 0.47048,2.60971 0.59376,3.92896 0.0504,0.7354 0.0657,1.46997 0.0532,2.2071 -0.0178,1.0474 -1.07512,1.04741 -1.05782,0 0.0118,-0.71277 -0.002,-1.42319 -0.0512,-2.13424 -0.12147,-1.27381 -0.32423,-2.53977 -0.57568,-3.79408 -0.0348,-0.18065 -0.0892,-0.35617 -0.1297,-0.53537 -0.0417,0.13205 -0.1109,0.23141 -0.19534,0.29559 0.124,0.8016 0.25532,1.60125 0.40308,2.39882 0.19084,1.03003 -0.8555,1.16059 -1.05007,0.13126 -0.15863,-0.83918 -0.29655,-1.68115 -0.42581,-2.52543 -0.0684,-0.44284 -0.15122,-0.88269 -0.24598,-1.31981 -0.55424,4.40516 -0.80548,8.85433 -0.58291,13.28136 0.0887,1.76496 0.29547,3.52187 0.44338,5.28288 0.74614,6.18882 2.1568,12.3579 5.33301,17.78806 1.86842,3.19431 3.02128,4.31352 5.45651,7.24659 4.6461,5.43339 10.10664,10.14219 14.60841,15.70498 2.65577,3.28165 3.19333,4.44421 5.33146,7.99693 2.85679,4.93888 3.96733,10.49629 5.39812,15.93597 0.94588,3.59614 1.17431,4.10521 2.33474,7.61039 1.42316,3.67963 3.17794,7.20311 5.67046,10.28465 1.69928,2.10075 3.24832,3.4549 5.18779,5.29373 l 6.01927,2.46962 c -1.90596,-1.75542 -3.58293,-3.19383 -5.26427,-5.19193 -2.53144,-3.00841 -4.31416,-6.46767 -5.75573,-10.10636 -1.09614,-3.24051 -1.49449,-4.24165 -2.37659,-7.56853 -1.45569,-5.49056 -2.49425,-11.13011 -5.36195,-16.13235 -2.07497,-3.49837 -2.74607,-4.89911 -5.33042,-8.12664 -4.46569,-5.57706 -9.93876,-10.26281 -14.58774,-15.67553 -2.34229,-2.79333 -3.59809,-4.05631 -5.45032,-7.09362 -3.25938,-5.34485 -4.76882,-11.44281 -5.53299,-17.60306 -0.15221,-1.74593 -0.37207,-3.48689 -0.45682,-5.23741 -0.29551,-6.10303 0.30847,-12.29228 1.603,-18.25573 z" />
    <path
       style="fill:#000000;stroke-width:0.451964"
       id="path20"
       d="m 200.83454,405.31856 c -0.78557,3.27382 -1.00629,4.42107 -4.29893,5.65448 -6.72171,1.09096 -13.58874,1.1471 -20.36928,0.6859 -3.61796,-0.54515 -7.02126,-2.42082 -10.76053,-1.87072 -1.37307,0.20198 -1.79498,0.5161 -2.98771,1.10088 -3.16999,2.31597 -6.85742,2.65802 -10.65824,2.88183 -2.8716,0.13974 -5.61951,-0.40113 -8.31565,-1.32056 0,0 5.27189,4.08393 5.27189,4.08393 v 0 c 2.74451,0.8101 5.53185,1.26291 8.41035,1.08325 3.87546,-0.27024 7.62694,-0.7212 10.8798,-3.03154 1.1378,-0.50784 1.4942,-0.76641 2.79265,-0.90616 3.66862,-0.39484 7.02362,1.48885 10.61468,1.84118 6.88177,0.38339 13.87453,0.3584 20.67919,-0.82846 0.50834,-0.22015 1.04585,-0.38242 1.52503,-0.6604 2.01267,-1.16775 2.62569,-3.37189 3.15619,-5.47605 z" />
    <path
       style="fill:#000000;stroke-width:0.451964"
       id="path21"
       d="m 135.6882,407.98353 c -0.47783,-0.25478 -1.90193,-1.03608 -1.43355,-0.76428 7.57317,4.39445 4.27429,2.55992 2.59237,1.22239 -1.53679,-1.22208 -2.76162,-2.65323 -3.98698,-4.173 -2.7693,-4.28874 -3.38386,-9.5392 -3.92547,-14.51104 -0.68267,-3.06017 0.41862,-7.00984 -1.01531,-9.88217 -0.20914,-0.41897 -0.54875,-0.75894 -0.82314,-1.1384 -3.07995,-2.12687 -2.80037,-2.00659 -8.40239,-4.61637 -0.41226,-0.19205 -2.60088,-0.41946 -3.05339,-0.47367 0,0 5.3626,4.00685 5.3626,4.00685 v 0 c 0.49157,0.0737 0.98707,0.12452 1.47469,0.22089 0.50278,0.0994 1.88674,0.69406 1.4934,0.36555 -1.99417,-1.66588 -6.67646,-3.88577 -3.05132,-2.12094 0.30937,0.30846 0.68809,0.56039 0.9281,0.92547 1.59664,2.42861 0.56278,7.01202 1.17761,9.78171 0.54169,5.04325 1.14464,10.36109 3.71762,14.82299 3.96228,5.15543 8.0171,7.63381 14.22785,10.52042 z" />
    <path
       id="path22"
       style="fill:#000000;stroke-width:0.451964"
       d="m 77.583893,345.19494 c 0.127463,1.47534 0.270935,2.95286 0.473873,4.4204 0.770927,-0.72369 1.502031,-1.48889 2.163692,-2.31872 0.152425,-0.18401 0.286118,-0.38118 0.425297,-0.57464 z m 5.361946,2.67322 c -0.06727,0.264 -0.125267,0.53028 -0.173116,0.79789 -0.121155,0.72487 -0.191806,1.45524 -0.241846,2.18798 -0.04049,0.6336 -0.06436,1.26807 -0.07958,1.90272 -0.0199,0.4615 0.0022,0.9232 0.04961,1.38235 0.07514,0.49629 0.170574,0.98947 0.271818,1.48104 0.09823,0.38804 0.20059,0.77516 0.324011,1.15601 0.100696,0.3408 0.203163,0.68081 0.303858,1.02164 0.114208,0.37735 0.231762,0.75286 0.335897,1.13326 0.129324,0.57189 0.324594,1.12535 0.519348,1.67742 0.0994,0.25593 0.201233,0.51095 0.300757,0.76688 0.03518,0.0535 0.07069,0.10708 0.107486,0.15916 0.203759,0.26817 0.413158,0.53164 0.600997,0.81132 0.219798,0.40606 0.449329,0.80591 0.683163,1.20406 0.183406,0.32204 0.354217,0.65126 0.526583,0.97927 0.232758,0.44293 0.187606,0.79862 0.01602,0.99581 3.74655,3.08105 8.227513,5.27453 12.541353,7.48946 1.117632,0.48116 2.211932,1.02016 3.352762,1.44332 3.97746,1.47554 8.19369,2.02879 12.31398,2.93781 l -5.3666,-4.10363 c -4.07191,-0.74348 -8.21786,-1.32436 -12.103132,-2.82566 -1.122886,-0.43392 -2.194182,-0.99116 -3.291272,-1.48674 -0.227309,-0.1209 -0.459344,-0.23466 -0.691431,-0.34778 0.0182,-0.0305 0.03444,-0.0633 0.03669,-0.11214 0.05176,-1.12133 -1.746224,-1.41535 -2.560567,-2.18798 -2.371933,-2.25055 -3.666039,-4.36254 -5.105631,-7.24658 -1.397832,-3.49734 -1.802053,-7.23327 -2.133203,-10.94869 z m -2.732649,2.59726 c -0.558222,0.56416 -1.140565,1.10406 -1.744597,1.62057 0.28666,1.45026 0.658349,2.88289 1.166854,4.28398 0.512862,1.0876 0.838508,1.84299 1.208712,2.56108 -0.05073,-0.40715 -0.09389,-0.81529 -0.119373,-1.22525 -0.06669,-0.8111 -0.127858,-1.62324 -0.148828,-2.43706 -0.01684,-0.70316 -0.0062,-1.40663 0.0015,-2.10994 -0.404098,0.15215 -0.85626,-0.22278 -0.706933,-1.00149 0.07942,-0.41418 0.160377,-0.82771 0.248047,-1.24024 0.03124,-0.15053 0.06245,-0.30109 0.09457,-0.45165 z m 1.787487,7.53804 c 0.0695,0.8111 0.191161,1.61667 0.327629,2.41897 0.07515,0.39162 0.164849,0.77994 0.26355,1.16582 0.411684,0.52394 0.848343,1.01899 1.297078,1.50017 -0.0045,-0.0114 -0.0095,-0.0227 -0.01395,-0.0341 -0.149163,-0.37099 -0.292171,-0.74452 -0.437182,-1.11725 -0.159518,-0.25525 -0.302867,-0.52092 -0.407727,-0.80305 -0.19078,-0.52569 -0.368106,-1.05574 -0.525033,-1.59267 -0.153563,-0.51777 -0.314453,-1.03248 -0.504362,-1.53789 z" />
    <path
       style="fill:#000000;stroke-width:0.451964"
       id="path29"
       d="m 244.68206,161.52279 c -4.64542,-2.96255 -9.4141,-5.91223 -14.68113,-7.62718 -3.82035,-0.91966 -7.78522,-0.9455 -11.69382,-1.00552 -3.14984,-0.0282 -6.31263,0.0991 -9.43791,-0.3898 -0.82119,-0.12845 -3.04587,-0.63701 -3.88828,-0.82467 -2.48329,-0.61124 -4.96916,-1.28551 -7.23437,-2.50044 -0.58432,-0.31339 -2.30839,-1.30451 -1.7183,-1.0021 1.32462,0.67883 2.6156,1.42144 3.92341,2.13215 -2.90555,-2.02871 -5.48765,-4.47583 -8.44326,-6.43386 -2.26299,-1.28281 -4.52599,-2.56563 -6.78897,-3.84844 0,0 5.24842,4.20559 5.24842,4.20559 v 0 c -1.5712,-0.92949 -3.14238,-1.85897 -4.71357,-2.78845 3.05138,1.85949 5.62965,4.3525 8.51465,6.44653 5.70928,3.43207 10.02937,6.57058 16.51242,7.81557 4.42137,0.93151 8.86213,1.24743 13.38355,1.09659 3.88828,0.0921 7.84554,0.12195 11.61276,1.20188 1.58234,0.56327 3.096,1.19655 4.60144,1.94529 0.51584,0.25656 2.02455,1.09822 1.53483,0.79474 -8.19429,-5.07873 -4.52504,-2.66263 -3.01971,-1.65682 z" />
    <path
       style="fill:#000000;stroke-width:0.451964"
       id="path30"
       d="m 181.58217,142.46793 c 0.96536,4.16845 2.76641,8.07713 4.4005,12.01253 1.30756,2.82231 1.67298,5.91649 2.47396,8.88669 0.59337,2.27092 2.04129,3.8559 4.07508,4.9914 7.85004,4.38273 5.22851,3.46867 10.41263,4.87428 4.4754,1.11941 9.04319,1.84024 13.63979,2.20491 3.41358,0.1802 6.83366,0.15357 10.25071,0.14658 3.67141,0.0237 7.36544,-0.51716 10.87865,-1.57661 2.48281,-1.20179 4.06696,-3.41281 5.50997,-5.67255 0.6955,-0.8357 1.20769,-1.75968 1.60635,-2.76416 0,0 -5.91059,-3.29201 -5.91059,-3.29201 v 0 c -0.36567,0.97158 -0.87172,1.84635 -1.52013,2.66241 -1.33921,2.1429 -2.79955,4.25399 -5.19841,5.29779 -3.49002,1.00602 -7.13353,1.4747 -10.76695,1.42233 -3.40713,0.005 -6.81859,0.0287 -10.22033,-0.19324 -4.54848,-0.38379 -9.07592,-1.06858 -13.48921,-2.25686 -4.2716,-1.3077 -2.62023,-1.06233 1.00137,1.55563 0.54217,0.39191 -1.17901,-0.63938 -1.7248,-1.02628 -1.26908,-0.89966 -2.06841,-1.99676 -2.48121,-3.49248 -0.88836,-2.98303 -1.17312,-6.13801 -2.50955,-8.98982 -1.61264,-3.88309 -3.46617,-7.72148 -4.36579,-11.85097 z" />
    <path
       style="fill:#000000;stroke-width:0.451964"
       id="path31"
       d="m 272.45831,159.12317 c 4.51273,-0.87079 9.11181,-1.10636 13.69328,-1.30548 5.27507,-0.10898 10.53763,-0.55286 15.75498,-1.33097 4.30439,-0.65783 8.39506,-2.07765 12.5056,-3.44419 2.54222,-0.93174 5.09845,-1.82961 7.60887,-2.84415 0,0 -5.54411,-3.71041 -5.54411,-3.71041 v 0 c -2.48812,1.01274 -5.01609,1.92638 -7.54325,2.83668 -4.07965,1.35478 -8.16728,2.68576 -12.43029,3.35581 -5.20333,0.75514 -10.44468,1.18916 -15.70338,1.28581 -4.64528,0.21678 -9.30011,0.48862 -13.88498,1.3118 z" />
    <path
       style="fill:#000000;stroke-width:0.451964"
       id="path32"
       d="m 314.00006,152.28961 c -2.10747,3.6857 -4.93901,6.8898 -7.49312,10.26852 -1.41792,1.8694 -2.39721,4.02591 -3.89357,5.83517 -2.62419,1.87577 -6.18694,1.86014 -9.28838,2.12376 -3.51008,0.25395 -7.03035,0.27432 -10.54772,0.2817 -2.42447,-0.0453 -4.82068,-0.0828 -7.22327,0.24877 -2.51419,0.26794 -5.06213,0.61164 -7.59044,0.39746 -2.16066,-0.79071 -6.59206,-2.38458 3.31714,2.06574 0.30389,0.13648 -0.45559,-0.49157 -0.63245,-0.77388 -0.46454,-0.74147 -0.587,-1.32465 -0.84591,-2.15181 -0.69618,-2.21661 0.0729,-4.36912 0.47612,-6.55608 0.24682,-1.59359 0.13562,-0.80223 0.33459,-2.37391 0,0 -5.95471,-3.1257 -5.95471,-3.1257 v 0 c -0.18189,1.54958 -0.0782,0.76984 -0.31232,2.33902 -0.42043,2.26998 -1.25628,4.51953 -0.61516,6.83406 0.22249,0.84612 0.36523,1.54878 0.74024,2.34552 1.51823,3.22525 5.55635,4.73291 8.91521,5.38259 2.56177,0.0664 5.12361,-0.1976 7.66563,-0.49535 2.3734,-0.285 4.75318,-0.19795 7.1405,-0.20498 3.51339,-0.0172 7.02886,-0.0788 10.53254,-0.36283 3.26214,-0.30535 7.05009,-0.30446 9.68452,-2.50246 1.47755,-1.83605 2.42542,-4.01429 3.82059,-5.91139 2.54686,-3.44125 5.34448,-6.70284 7.6348,-10.32457 z" />
    <circle
       id="path36"
       style="fill:#000000;stroke:#000000;stroke-width:0.264583"
       cx="325.92401"
       cy="471.95483"
       r="0.093967013" />
  </g>
  <g
     inkscape:groupmode="layer"
     id="layer3"
     inkscape:label="Trace"
     style="display:inline">
    <path
       style="display:inline;fill:#550000;fill-opacity:1;stroke:none;stroke-width:0.301728;stroke-linecap:round;stroke-linejoin:bevel;stroke-dasharray:none;stroke-dashoffset:0;stroke-opacity:1;paint-order:normal"
       d="m 47.798861,17.279539 c -0.09768,-0.0012 -0.195611,-0.0012 -0.293603,3.01e-4 -3.491889,0.05281 -7.093433,1.812794 -7.375591,1.95324 l -6.03e-4,-6.04e-4 c 0,0 -1.468803,0.691151 -2.984663,1.928289 -5.243853,4.362727 -8.427475,13.970683 -9.711153,18.171659 -1.655537,5.418262 -10.837031,20.6204 -13.696676,24.383124 -2.859655,3.762726 2.408248,6.923713 3.913335,8.278225 1.50508,1.35462 -0.752618,4.816463 -1.354651,5.719541 -0.602031,0.903087 -6.9237292,11.589657 -8.5793105,13.997766 -1.6555923,2.408101 -1.3545063,5.418565 0.3010859,7.826674 1.6555816,2.408106 4.1477486,0.858916 4.1477486,0.858916 0.480349,-0.24754 0.879386,-0.478379 1.223152,-0.847064 0.315798,-0.337211 0.522092,-0.758949 0.727219,-1.17285 0.244882,-0.520867 0.462888,-1.054217 0.67795,-1.58791 0.220769,-0.532269 0.421086,-1.072562 0.641932,-1.604596 0.264132,-0.638206 0.516982,-1.281399 0.807054,-1.90849 0.274703,-0.567215 0.578545,-1.119565 0.899981,-1.661664 0.346206,-0.598294 0.667293,-1.21203 1.048892,-1.789208 0.432862,-0.642201 0.896331,-1.265061 1.404076,-1.850329 0.659991,-0.774337 1.348812,-1.523657 2.091699,-2.219865 0.898709,-0.857903 1.823487,-1.687769 2.767465,-2.495692 0.887195,-0.75521 1.788707,-1.493752 2.671883,-2.2537 0.372507,-0.327734 0.753128,-0.646087 1.129343,-0.969524 l 0.947852,-0.891253 c -9.05e-4,0.0015 -0.0018,0.0027 -0.0024,0.0042 0.0062,-0.0067 0.01234,-0.01343 0.01856,-0.02013 v -3.01e-4 c 1.752452,-1.711709 5.298215,-5.886723 6.599254,-12.667906 0.08849,-0.461249 0.149826,-0.888526 0.196775,-1.297274 0.91417,-4.70311 1.048662,-8.134675 1.351533,-9.876116 0.352579,-2.027214 0.204258,-6.287771 0.582526,-10.940598 3.679519,-20.923215 16.429546,-17.483238 16.429546,-17.483238 -0.03066,-0.338114 -0.05946,-0.472585 -0.110119,-0.666855 -0.06287,-0.311921 -0.12595,-0.6242 -0.207221,-0.931951 -0.0871,-0.328766 -0.187439,-0.653585 -0.302334,-0.973736 -0.02465,-0.07252 -0.05317,-0.143466 -0.07905,-0.215486 l -0.0086,-0.0015 C 53.562282,23.769351 53.451141,23.46581 53.308634,23.174736 53.094003,22.74745 52.844957,22.338711 52.585154,21.937491 52.376503,21.633539 52.157856,21.336832 51.937453,21.041407 h 0.0058 c -0.0662,-0.08876 -0.130546,-0.178852 -0.198332,-0.26647 -0.24927,-0.316036 -0.505766,-0.627307 -0.730028,-0.962042 -0.237804,-0.361959 -0.470452,-0.728344 -0.680134,-1.107359 -0.06521,-0.125556 -0.127293,-0.252815 -0.189446,-0.379982 -0.106631,-0.218179 -0.209931,-0.437943 -0.304049,-0.661734 -0.01563,-0.03975 -0.02963,-0.08019 -0.04506,-0.120061 -0.638652,-0.175192 -1.313021,-0.255141 -1.997053,-0.264444 z"
       id="path185"
       inkscape:label="hair-left"
       sodipodi:nodetypes="ccccccscssscccccccccccccccccscsccccccccccccccscccc" />
    <path
       style="display:inline;fill:#550000;fill-opacity:1;stroke:none;stroke-width:0.301728;stroke-linecap:round;stroke-linejoin:bevel;stroke-dasharray:none;stroke-dashoffset:0;stroke-opacity:1;paint-order:normal"
       d="m 74.288553,6.6149191 c -1.586115,-0.00549 -3.197735,0.056816 -4.828756,0.1549866 -13.343562,0.8031634 -18.474764,8.0397073 -19.130884,10.8567103 0.0089,0.0226 0.01684,0.04557 0.02574,0.06814 0.04419,0.104389 0.09876,0.204058 0.145943,0.307165 -0.0031,-0.0012 -0.0062,-0.0027 -0.0094,-0.004 0.105958,0.23195 0.216454,0.461948 0.33414,0.688084 0.201862,0.362644 0.424495,0.714016 0.652535,1.06074 0.216333,0.32157 0.463249,0.62077 0.703053,0.924776 0.300011,0.387622 0.583931,0.786781 0.861316,1.190777 0.273933,0.420718 0.533832,0.850933 0.759965,1.299301 0.187853,0.383222 0.341897,0.779874 0.479304,1.18345 0.119056,0.331578 0.222223,0.668412 0.312781,1.008819 0.08415,0.318105 0.149657,0.640731 0.214703,0.963137 0.03322,0.159958 0.05351,0.321657 0.07017,0.483826 0.345853,-0.263683 0.913361,-0.704181 2.524381,-1.691608 4.665804,-2.859657 9.633107,-3.461716 14.449317,-3.1607 4.81621,0.301016 12.793708,2.107471 18.061569,12.342037 3.912534,7.601571 3.593529,21.903458 4.094051,32.410626 0.01213,0.04902 0.0271,0.09445 0.03118,0.153429 0.02393,0.344939 0.0514,0.689615 0.07952,1.034233 0.04228,0.602521 0.10705,1.202866 0.201295,1.799654 0.116367,0.88839 0.226597,1.777573 0.364391,2.662997 0.118292,0.779798 0.243588,1.559665 0.417247,2.329322 0.125836,0.560551 0.250959,1.1214 0.383569,1.680375 0.143529,0.512775 0.314953,1.016495 0.501134,1.515408 0.210033,0.553037 0.439446,1.098121 0.678885,1.639056 0.225282,0.49318 0.476534,0.973302 0.742972,1.445555 0.294152,0.511739 0.587117,1.025923 0.928984,1.507768 0.42983,0.576361 0.888776,1.130409 1.425128,1.612235 0.608854,0.547854 1.249754,1.062348 1.922054,1.53038 0.69601,0.456037 1.40976,0.883571 2.14596,1.272013 0.65111,0.3418 1.30511,0.681911 1.99331,0.944264 0.56683,0.230468 1.13275,0.463475 1.7036,0.683875 0.41713,0.154934 0.83044,0.318429 1.24597,0.47759 0.31629,0.124231 0.63201,0.250769 0.94366,0.386221 0.22067,0.107062 0.43,0.23297 0.63959,0.360022 0.27406,0.189473 0.52758,0.40672 0.79224,0.608878 0.18473,0.146869 0.3731,0.28933 0.55914,0.434712 1.72349,1.127379 4.33462,3.126756 8.60987,6.726954 11.43859,9.632523 5.11755,-10.536126 3.61241,-16.104899 -1.50503,-5.568783 -6.17126,-5.719496 -8.42885,-6.472021 -2.25759,-0.752564 -9.33164,-4.666348 -7.52559,-15.35242 1.8061,-10.686106 -0.97854,-20.77122 -3.68767,-30.55426 C 101.50667,19.865514 96.819227,13.944313 87.710966,9.3643086 83.57614,7.2587784 79.046952,6.6314022 74.288553,6.6149312 Z"
       id="path37"
       inkscape:label="hair-right" />
    <path
       id="path603"
       style="display:inline;fill:#808000;fill-opacity:1;stroke:none;stroke-width:0.193871;stroke-linecap:round;stroke-linejoin:bevel;stroke-dasharray:none;stroke-dashoffset:0;stroke-opacity:1;paint-order:normal"
       d="m 38.378533,123.95505 c -2.356242,0.0798 -2.068955,1.67591 -2.068955,1.67591 0.154512,2.12255 0.524648,2.69942 5.923,3.11479 6.933625,0.53346 12.074205,-1.09614 12.074205,-1.09614 0,0 3.52517,-1.23025 9.967075,-0.42733 6.697629,0.83481 9.828202,0.33858 9.828202,0.33858 4.462096,-0.61546 5.934559,-1.7599 13.567623,-0.86813 5.58427,0.65242 5.795766,0.33234 7.263586,0.34394 1.248095,0.01 5.544051,-0.49726 0.05618,-0.80501 -1.911761,-0.1072 -3.615019,0.065 -9.16021,-1.04335 -4.374606,-0.87436 -9.00678,-0.12013 -9.00678,-0.12013 0,0 -3.540175,0.80112 -7.437916,0.56278 -3.427838,-0.20961 -9.187443,-1.59565 -14.796657,-0.72525 -5.609194,0.87039 -9.526067,0.24176 -14.119804,-0.72534 -0.86133,-0.18133 -1.545831,-0.24374 -2.089569,-0.22532 z m 0.135534,1.69444 c 0.167413,-3e-5 0.30314,0.13566 0.303158,0.30307 3.6e-5,0.16744 -0.135729,0.30319 -0.303164,0.30315 -0.167408,-10e-6 -0.303086,-0.13578 -0.303059,-0.30317 -9e-6,-0.16736 0.135699,-0.30303 0.303062,-0.30306 z"
       sodipodi:nodetypes="scscscsssscsssssssss"
       inkscape:label="hair-stick" />
    <path
       id="path38"
       style="display:inline;fill:#550000;fill-opacity:1;stroke:none;stroke-width:0.301728;stroke-linecap:round;stroke-linejoin:bevel;stroke-dasharray:none;stroke-dashoffset:0;stroke-opacity:1;paint-order:normal"
       d="m 30.626816,79.981738 c -1.156026,-0.03704 -2.296054,0.899183 -2.35271,0.946292 -0.0035,0.0032 -0.0082,0.005 -0.01171,0.0083 -0.02966,0.02788 -0.05929,0.0489 -0.08809,0.06424 -0.09677,0.08323 -0.194669,0.16516 -0.290483,0.249478 -0.885629,0.762479 -1.789742,1.503049 -2.679682,2.260561 -0.934615,0.800126 -1.85051,1.621698 -2.74049,2.47121 -0.726966,0.681196 -1.401023,1.414401 -2.046634,2.172155 -0.49184,0.567068 -0.941545,1.170349 -1.360419,1.79295 -0.372414,0.565761 -0.687071,1.166417 -1.025815,1.752255 -0.313055,0.528654 -0.610568,1.066536 -0.877841,1.619875 -0.284113,0.616204 -0.532538,1.24811 -0.791929,1.874808 -0.220723,0.532366 -0.421265,1.072477 -0.642087,1.60491 -0.203171,0.505125 -0.412032,1.008284 -0.640061,1.502777 -0.381301,1.009039 -0.962018,3.438331 -0.120684,5.040191 0.0011,0.003 0.0018,0.007 0.003,0.01 0.0025,0.006 0.005,0.0127 0.0075,0.019 3.386076,5.59384 11.681183,5.0198 11.747026,5.41486 0.07526,0.45146 0.376149,2.33306 0.902945,5.04222 0.526799,2.70915 2.333088,4.8165 6.171093,6.09578 3.837923,1.27936 6.246443,-0.8278 6.62264,-1.05357 0.376285,-0.22568 7.600939,1.27937 10.159584,0 2.558726,-1.27927 1.128734,-1.88143 -1.35465,-3.61225 -2.483472,-1.7309 -3.160764,-3.2363 -5.644233,-10.15974 -2.483385,-6.923442 -7.676287,-9.106254 -9.632876,-14.223537 -0.85383,-2.233086 -1.120204,-5.169868 -1.154604,-7.798297 -0.0018,-0.01008 -0.0032,-0.02018 -0.0048,-0.03025 -0.0024,-0.586128 -0.127782,-1.217949 -0.458569,-1.860618 -0.452716,-0.879561 -1.074363,-1.183359 -1.695343,-1.203252 z"
       inkscape:label="shoulder-left" />
    <path
       id="path95"
       style="display:inline;fill:#550000;fill-opacity:1;stroke:none;stroke-width:0.301728;stroke-linecap:round;stroke-linejoin:bevel;stroke-dasharray:none;stroke-dashoffset:0;stroke-opacity:1;paint-order:normal"
       d="m 95.876436,81.795552 c -0.28682,-0.0047 -0.521347,0.03937 -0.654249,0.07172 l -6.04e-4,-3.02e-4 c 0,0 -0.263997,0.03108 -0.477119,0.148125 -0.690662,0.289414 -1.233564,1.075087 -1.213855,2.848544 0.0068,0.611829 0.03558,1.158524 0.08014,1.648256 0.0033,0.151187 0.0033,0.302473 0.0083,0.453576 0.005,0.125573 0.01074,0.25114 0.01466,0.37671 0.05177,0.213714 0.172293,0.747335 0.172293,0.747335 0,0 0.166867,0.977264 0.352385,2.41352 0.0053,0.01032 0.01038,0.02082 0.01605,0.03087 0.0207,0.07579 0.0232,0.11208 0.0065,0.157481 0.138518,1.095077 0.283733,2.399079 0.377643,3.870305 0.225657,3.536913 -0.225913,8.880408 -3.913337,13.621368 -1.199752,1.62598 -2.086072,3.02179 -2.735499,4.23749 -0.413144,0.60523 -1.604563,2.29379 -3.239286,4.07909 -1.55571,1.69899 2.297131,2.60805 4.161409,2.9382 2.86749,0.73438 7.567351,-0.60488 9.113191,-1.09505 3.085372,-0.97824 3.386732,-2.85987 5.945312,-4.66597 2.55858,-1.80607 6.09594,-0.67738 8.504,-2.634 0.71895,-0.58414 1.36614,-1.2733 1.93469,-1.95526 0.0316,-0.0341 0.0747,-0.0836 0.12208,-0.14454 0.0135,-0.0165 0.0284,-0.0331 0.0418,-0.0496 -3e-4,-0.001 -1.1e-4,-0.004 -6e-4,-0.006 0.0265,-0.0364 0.0535,-0.0748 0.0801,-0.11709 -1.4e-4,-9.1e-4 -3e-4,-0.002 -6e-4,-0.003 -1.1e-4,-9.1e-4 -2.1e-4,-0.002 -3e-4,-0.002 0.17964,-0.23385 0.64095,-1.03656 0.64364,-1.04125 9.1e-4,-3e-4 0.002,-9.1e-4 0.003,-0.001 0.16098,-0.16671 0.31572,-0.33811 0.45545,-0.52327 0.2021,-0.24629 0.38089,-0.50875 0.54978,-0.77852 0.19865,-0.32027 0.35789,-0.66215 0.51595,-1.00367 0.18832,-0.42299 0.36767,-0.84997 0.53341,-1.2823 0.14752,-0.39736 0.24577,-0.80964 0.32525,-1.22508 0.0624,-0.33122 0.0935,-0.66675 0.11476,-1.00274 0.007,-0.26332 -0.002,-0.52653 -0.0157,-0.78943 -0.84869,-1.663239 -2.11678,-3.463931 -3.79826,-5.276728 -2.54973,-2.748944 -3.62674,-4.590795 -4.09219,-5.735602 -0.16947,-0.09984 -0.33641,-0.20217 -0.51407,-0.287209 -0.29506,-0.126282 -0.5928,-0.246165 -0.89156,-0.363452 -0.4111,-0.157569 -0.82028,-0.319316 -1.23304,-0.472603 -0.57811,-0.222883 -1.15121,-0.458946 -1.72512,-0.692294 -0.71082,-0.271474 -1.38688,-0.621946 -2.05958,-0.974983 -0.75777,-0.39949 -1.492,-0.839863 -2.20848,-1.308811 -0.70495,-0.488163 -1.374876,-1.027635 -2.012802,-1.60023 -0.573413,-0.51489 -1.065323,-1.106096 -1.525232,-1.72185 -0.01222,-0.01711 -0.02308,-0.03509 -0.03477,-0.05255 l 0.0042,-0.0024 c 0,0 -0.557473,-0.690124 -1.050916,-0.727843 -0.0072,-6.04e-4 -0.01439,-9.05e-4 -0.02151,-0.0012 -1.08e-4,-6e-6 -2.02e-4,3e-6 -3.01e-4,0 -0.230593,-0.0729 -0.45596,-0.100992 -0.657059,-0.104314 z m 22.837934,22.050368 c -0.004,0.0311 -0.009,0.0621 -0.0139,0.0931 0.0126,0.005 0.0247,0.0124 0.0363,0.0204 -0.008,-0.0383 -0.0133,-0.0748 -0.0225,-0.11351 z m -2.54169,5.0851 c -2.2e-4,6e-4 -3e-4,9e-4 -6e-4,10e-4 3e-4,-6e-4 6e-4,-9e-4 9e-4,-10e-4 -10e-5,-1e-5 -3e-4,0 -3e-4,0 z"
       inkscape:label="shoulder-right" />
    <path
       id="path163"
       style="fill:#550000;fill-opacity:1;stroke:none;stroke-width:0.301728;stroke-linecap:round;stroke-linejoin:bevel;stroke-dasharray:none;stroke-dashoffset:0;stroke-opacity:1;paint-order:normal"
       d="m 82.350623,40.289933 c -0.332746,0.0127 -0.684358,0.104646 -1.053559,0.291189 -3.3e-5,-1.6e-4 1.2e-5,-2.99e-4 -3.9e-5,-6.03e-4 l -6e-6,-1.6e-4 c -3.962706,1.522501 -6.782876,1.873963 -8.595154,1.854824 -0.807943,-0.08022 -1.674711,-0.353525 -2.35483,-0.365392 -0.0061,-0.0012 -0.01297,-0.0024 -0.02073,-0.0027 -0.224142,-0.01128 -0.447399,0.0478 -0.447399,0.0478 l 9.05e-4,0.0021 c -0.07987,0.02049 -0.156338,0.04612 -0.225653,0.08289 -0.699469,0.369514 -0.959155,1.32244 -0.558297,3.602457 0.400861,2.279999 2.460094,1.13553 2.460094,1.13553 0,0 1.785289,-0.530396 6.308608,-1.84644 4.523344,-1.316071 7.501064,1.004244 7.501064,1.004244 0,0 1.400752,0.364856 0.95897,-1.213803 -0.372757,-1.332 -1.763721,-4.675605 -3.973969,-4.591963 z"
       inkscape:label="eyebrow-right" />
    <path
       id="path163-1"
       style="display:inline;fill:#550000;fill-opacity:1;stroke:none;stroke-width:0.301728;stroke-linecap:round;stroke-linejoin:bevel;stroke-dasharray:none;stroke-dashoffset:0;stroke-opacity:1;paint-order:normal"
       d="m 48.376178,40.267168 c 0.332758,0.0124 0.684355,0.104642 1.053556,0.291183 3.6e-5,-1.6e-4 -9e-6,-3.02e-4 3.3e-5,-6.04e-4 l 6e-6,-1.63e-4 c 3.962712,1.522508 6.782876,1.873967 8.595148,1.854828 0.807949,-0.08022 1.67472,-0.353526 2.354836,-0.365399 0.006,-0.0015 0.01294,-0.0024 0.02073,-0.0027 0.224133,-0.01129 0.447393,0.04777 0.447393,0.04777 l -9.05e-4,0.0021 c 0.07987,0.02049 0.156346,0.04612 0.225659,0.08289 0.699466,0.369511 0.959155,1.322441 0.558297,3.602458 -0.400864,2.279995 -2.460094,1.135532 -2.460094,1.135532 0,0 -1.785292,-0.530399 -6.308611,-1.846443 -4.523341,-1.316071 -7.501064,1.004245 -7.501064,1.004245 0,0 -1.400749,0.364855 -0.95897,-1.213804 0.37276,-1.331993 1.763721,-4.675604 3.973972,-4.591962 z"
       inkscape:label="eyebrow-left" />
    <path
       style="fill:#550000;fill-opacity:1;stroke:none;stroke-width:0.301728;stroke-linecap:round;stroke-linejoin:bevel;stroke-dasharray:none;stroke-dashoffset:0;stroke-opacity:1;paint-order:normal"
       d="m 46.181254,52.126168 c 0.01593,-0.0726 0.087,-0.914815 0.225768,-1.053592 0.04288,-0.04288 0.297975,-0.01653 0.376285,-0.07526 0.113523,-0.08514 0.182953,-0.22231 0.301025,-0.301025 0.143336,-0.09556 1.251632,0.06564 1.580391,-0.07526 0.727596,-0.311827 -0.09267,0.03669 0.526796,-0.376285 0.277644,-0.185095 0.558855,-0.06439 0.827824,-0.225771 0.111824,-0.06709 0.297513,-0.182871 0.376282,-0.301025 0.01391,-0.02088 -0.01774,-0.05752 0,-0.07526 0.03166,-0.03166 0.273466,0.01379 0.301028,0 0.06346,-0.03173 0.08923,-0.114762 0.150514,-0.150514 0.515358,-0.300623 1.358712,-0.643338 1.881416,-0.827824 0.269492,-0.09511 0.798237,0 1.053595,0 0.774397,0 1.510882,-0.06286 2.257698,0.150514 0.441374,0.126108 0.01177,0.0059 0.451542,0.225771 0.128063,0.06403 0.33032,0.0899 0.451539,0.150514 0.03173,0.01587 0.04047,0.0683 0.07526,0.07526 0.09839,0.01967 0.201298,-0.01107 0.301025,0 0.296653,0.03296 0.709019,0.178243 0.978338,0.225768 0.223705,0.03948 0.455559,0.02598 0.677311,0.07526 0.533666,0.118595 0.827824,0.165414 0.827824,0.67731 0,0.07526 -0.05877,0.178759 0,0.225771 0.509546,0.407638 1.785092,0.267902 1.279363,1.279363 -0.06456,0.129128 -0.231378,0.09287 -0.301028,0 -0.12695,-0.169266 -0.135917,-0.252449 -0.301025,-0.376282 -0.195209,-0.146407 -0.124765,-0.02495 -0.376285,-0.07526 -0.245655,-0.04913 -0.503063,-0.277294 -0.67731,-0.451542 -0.233505,-0.233504 0.206044,0.19018 -0.376282,-0.225768 -0.270949,-0.193537 -0.69345,-0.610124 -0.978339,-0.752567 -0.120826,-0.06042 -0.255455,-0.0901 -0.376282,-0.150514 -0.04488,-0.02245 -0.115036,0.03548 -0.150514,0 -0.01774,-0.01774 0.01774,-0.05752 0,-0.07526 -0.220937,-0.220937 -0.706692,-0.315716 -0.978338,-0.451539 -0.02245,-0.01122 -0.05752,0.01774 -0.07525,0 -0.01774,-0.01774 0.01774,-0.05752 0,-0.07526 -0.07095,-0.07095 -0.202052,0.01651 -0.301028,0 -0.213041,-0.03551 -0.392599,-0.173406 -0.602053,-0.225771 -0.177841,-0.04446 -0.419576,0 -0.602053,0 -0.976476,0 -3.207845,-0.09405 -3.913346,0.376285 -0.140421,0.09361 -0.02058,0.116419 -0.07526,0.225768 -0.03173,0.06346 -0.118784,0.08705 -0.150514,0.150514 -0.01122,0.02245 0.01774,0.05752 0,0.07526 -0.01774,0.01774 -0.05752,-0.01774 -0.07526,0 -0.04128,0.04128 0.0096,0.194304 -0.150514,0.301025 -0.104361,0.06958 -0.188839,0.16968 -0.301025,0.225771 -0.191705,0.09585 -0.450501,0.07422 -0.602056,0.225771 -0.03966,0.03966 -0.03559,0.110849 -0.07525,0.150514 -0.0346,0.0346 -0.241844,0.120921 -0.301028,0.150511 -0.107306,0.05365 -0.46499,0.08198 -0.602053,0.150514 -0.17741,0.08871 -0.281904,0.263195 -0.451539,0.376285 -0.02625,0.0175 -0.345339,0.06752 -0.376285,0.07526 -0.145113,0.03628 -0.259546,0.147944 -0.376282,0.225768 -0.328687,0.219124 0.0248,-0.03335 -0.301028,0.07526 -0.06731,0.02245 -0.0832,0.128075 -0.150514,0.150514 -0.04759,0.01587 -0.105638,-0.02245 -0.150511,0 -0.06346,0.03173 -0.09375,0.107941 -0.150514,0.150514 -0.163998,0.122997 -0.429772,0.121799 -0.602053,0.150511 z"
       id="path599"
       inkscape:label="eye-left" />
    <path
       style="fill:#550000;fill-opacity:1;stroke:none;stroke-width:0.301728;stroke-linecap:round;stroke-linejoin:bevel;stroke-dasharray:none;stroke-dashoffset:0;stroke-opacity:1;paint-order:normal"
       d="m 71.091214,52.502453 c 0.05486,-0.454182 -0.148016,-1.182348 0.150517,-1.580388 0.154762,-0.206354 1.061207,-0.429727 1.279357,-0.451542 0.124809,-0.01249 0.251822,0.01557 0.376282,0 0.27138,-0.03392 0.42362,-0.153287 0.677313,-0.225768 0.544287,-0.15551 1.068919,-0.232339 1.580388,-0.451542 0.500717,-0.214592 0.994088,-0.356446 1.505134,-0.526796 0.27004,-0.09001 2.778504,0 3.236039,0 0.812939,0 1.603781,-0.260349 2.332958,0.225771 0.179145,0.119433 0.18791,0.507637 0.301025,0.67731 0.20805,0.312072 0.521199,0.42356 0.602053,0.827824 0.01475,0.07379 -0.01825,0.152759 0,0.225768 0.0086,0.03442 0.0683,0.04047 0.07526,0.07526 0.03218,0.160924 -0.0676,0.5196 0,0.67731 0.124321,0.290094 0.448168,0.483311 0.752561,0.526796 0.09934,0.01418 0.204547,-0.02758 0.301031,0 0.06205,0.01774 0.463864,0.21344 0.301025,0.376285 -0.05492,0.05492 -0.525816,0.01907 -0.602056,0 -0.26668,-0.06667 -0.43187,-0.166768 -0.526796,-0.451542 -0.03173,-0.09519 0.04487,-0.211276 0,-0.301025 -0.07493,-0.149868 -0.250353,-0.217072 -0.376282,-0.301028 -0.05904,-0.03936 -0.08705,-0.118781 -0.150514,-0.150511 -0.06731,-0.03366 -0.152759,0.01826 -0.225768,0 -0.225421,-0.05636 -0.14753,-0.14753 -0.225771,-0.225771 -0.01774,-0.01774 -0.05752,0.01774 -0.07526,0 -0.100132,-0.100137 -0.07526,-0.382165 -0.07526,-0.526796 0,-0.100342 0.0835,-0.245368 0,-0.301028 -0.233846,-0.155903 -0.171433,-0.03429 -0.376282,-0.07526 -0.396389,-0.07928 -0.06306,-0.05928 -0.451539,-0.225771 -0.09506,-0.04074 -0.2029,-0.04255 -0.301022,-0.07525 -0.278607,-0.09287 -0.366693,-0.333859 -0.602056,-0.451542 -0.04487,-0.02245 -0.10292,0.01587 -0.150514,0 -0.03366,-0.01122 -0.04084,-0.06665 -0.07526,-0.07526 -0.188876,-0.04722 -0.413172,0.04722 -0.602056,0 -0.433568,-0.108392 0.132546,-0.04212 -0.301022,-0.150511 -0.184923,-0.04623 -0.343201,-0.08931 -0.526799,-0.150514 -0.09507,-0.03169 -1.441488,-0.121557 -1.580388,-0.07526 -0.218823,0.07294 -0.167544,0.198302 -0.301025,0.376282 -0.106815,0.142422 -0.662049,0.410097 -0.827827,0.451542 -0.426577,0.106643 -0.972606,0.07526 -1.429874,0.07526 -0.149286,0 -0.386954,-0.04661 -0.526799,0 -0.03365,0.01123 -0.0416,0.06404 -0.07526,0.07525 -0.149238,0.04975 -0.387193,-0.0698 -0.526796,0 -0.03173,0.01587 -0.05017,0.05017 -0.07526,0.07526 -0.05017,0.05017 -0.08705,0.118785 -0.150517,0.150514 -0.04487,0.02245 -0.102911,-0.01587 -0.150508,0 -0.195725,0.06524 -0.384646,0.303816 -0.602053,0.376285 -0.325836,0.10861 0.02767,-0.14387 -0.301031,0.07526 -0.220002,0.14667 -0.323154,0.388077 -0.451539,0.602053 -0.03128,0.05213 -0.224193,0.147361 -0.225765,0.150511 -0.02245,0.04488 0.02242,0.105641 0,0.150514 -0.09088,0.181764 -0.532218,0.492315 -0.602056,0.602053 -0.08518,0.133853 -0.10034,0.301028 -0.150517,0.451542"
       id="path600"
       inkscape:label="eye-right" />
  </g>
</svg>
